<svg version="1.1" id="Layer_1" xmlns="http://www.w3.org/2000/svg" xmlns:xlink="http://www.w3.org/1999/xlink" x="0px" y="0px"
	 width="100%" viewBox="0 0 119 119" enable-background="new 0 0 119 119" xml:space="preserve">
<path fill="#FDFCFB" opacity="1.000000" stroke="none" 
	d="
M120.000000,70.000000 
	C120.000000,86.596916 120.000000,103.193840 120.000000,120.000000 
	C101.979645,120.000000 83.958481,120.000000 65.528687,119.645538 
	C66.978073,117.550888 70.038330,116.556992 69.348747,113.012650 
	C70.137054,112.957733 70.586403,112.915123 71.318802,113.026093 
	C74.846596,113.533287 78.187317,114.666412 80.198433,110.428185 
	C80.587173,109.608940 83.220512,109.949509 84.766792,109.553452 
	C85.907593,109.261261 86.964386,108.641083 88.392380,108.085190 
	C90.874001,106.396004 93.021851,104.788673 95.456749,103.146759 
	C96.224129,102.568314 96.704460,102.024437 97.488480,101.324341 
	C99.571533,99.191643 101.350906,97.215149 103.435577,95.077118 
	C105.890846,91.305962 108.040817,87.696335 110.443230,83.847687 
	C111.556709,81.091057 112.417755,78.573456 113.500900,75.885719 
	C113.845253,74.783638 113.967522,73.851700 114.140884,72.582870 
	C114.524338,71.164726 114.856697,70.083450 115.446838,69.032310 
	C117.136414,69.374962 118.568207,69.687485 120.000000,70.000000 
z"/>
<path fill="#FDFCFB" opacity="1.000000" stroke="none" 
	d="
M65.000000,1.000001 
	C66.066673,1.000000 67.133339,1.000000 68.483948,1.283566 
	C68.805290,2.253738 68.842705,2.940346 68.880112,3.626952 
	C69.586739,2.751301 70.293373,1.875650 71.000000,1.000000 
	C87.262962,1.000000 103.525917,1.000000 120.000000,1.000000 
	C120.000000,18.353657 120.000000,35.708172 119.740913,53.356632 
	C118.272369,53.454334 117.062904,53.258087 115.613785,52.879227 
	C115.202827,52.121082 115.031517,51.545547 114.871094,50.595692 
	C114.214554,47.848053 113.547127,45.474735 112.908585,42.807961 
	C112.497803,41.969055 112.058151,41.423607 111.644783,40.491821 
	C110.497078,37.684013 109.323074,35.262547 108.112991,32.511898 
	C107.661705,31.714439 107.246513,31.246161 106.726517,30.480518 
	C104.855263,28.003780 103.088821,25.824408 101.256607,23.342560 
	C100.741539,22.656088 100.292252,22.272091 99.715469,21.601067 
	C97.467461,19.598621 95.346947,17.883204 93.099487,15.879658 
	C92.425545,15.307788 91.878540,15.024046 91.119881,14.470751 
	C88.634628,13.013219 86.361046,11.825241 83.917366,10.398895 
	C82.875900,9.806174 82.004517,9.451822 80.771553,8.970716 
	C77.994705,8.187080 75.579437,7.530199 72.977386,6.614281 
	C71.957909,6.251983 71.125214,6.148721 69.949326,5.982831 
	C68.731186,5.701778 67.856247,5.483353 66.953697,4.915654 
	C66.284058,3.377588 65.642029,2.188795 65.000000,1.000001 
z"/>
<path fill="#FDFDFC" opacity="1.000000" stroke="none" 
	d="
M52.000000,120.000000 
	C35.073246,120.000000 18.146490,120.000000 1.000000,120.000000 
	C1.000000,103.313080 1.000000,86.625198 1.274380,69.449783 
	C1.903303,68.594666 2.257847,68.227074 2.612390,67.859482 
	C2.074926,67.906319 1.537463,67.953163 1.000000,68.000000 
	C1.000000,67.555557 1.000000,67.111107 1.352276,66.305832 
	C2.828998,65.635849 3.953443,65.326691 5.171844,65.412018 
	C5.587317,67.889732 5.908834,69.972961 6.138227,72.362488 
	C6.493969,73.511360 6.941835,74.353951 7.410186,75.584023 
	C8.303117,78.320076 9.175563,80.668633 10.068096,83.384857 
	C10.538527,84.306358 10.988869,84.860184 11.515812,85.715958 
	C12.764977,88.133049 13.937543,90.248215 15.183548,92.627762 
	C16.069340,93.636070 16.881691,94.380005 17.807690,95.442032 
	C19.609673,97.521767 21.298008,99.283401 23.092751,101.322052 
	C24.005661,102.122993 24.812164,102.646927 25.813549,103.467346 
	C27.985401,105.104874 29.962374,106.445915 32.064980,108.030228 
	C33.041790,108.587502 33.892963,108.901497 34.977867,109.490509 
	C37.479534,110.675491 39.747478,111.585464 42.239548,112.685287 
	C43.538162,113.207100 44.612652,113.539078 46.074646,113.974457 
	C47.976032,114.439697 49.489914,114.801521 51.011566,115.520233 
	C51.346218,117.251411 51.673107,118.625702 52.000000,120.000000 
z"/>
<path fill="#FDFCFB" opacity="1.000000" stroke="none" 
	d="
M1.000000,54.000000 
	C1.000000,36.409451 1.000000,18.818901 1.000000,1.000000 
	C17.020172,1.000000 33.041428,1.000000 49.530739,1.405450 
	C49.994301,3.154423 49.989811,4.497946 49.609627,5.910685 
	C47.473999,6.753438 45.712551,7.523565 43.954407,8.301161 
	C38.942780,10.517719 33.932499,12.737319 28.625677,15.116653 
	C25.474127,17.961174 22.618587,20.644762 19.497211,23.466614 
	C17.666336,25.693834 16.101299,27.782793 14.306322,30.023224 
	C13.674455,30.968140 13.272528,31.761583 12.598911,32.779099 
	C11.269971,35.290722 10.212719,37.578274 8.957161,40.114441 
	C8.502890,41.150414 8.246923,41.937775 7.659703,42.947021 
	C6.937421,45.669178 6.546392,48.169441 5.990655,50.955254 
	C5.519814,51.825363 5.213683,52.409924 4.634269,52.867722 
	C3.240657,53.160641 2.120328,53.580318 1.000000,54.000000 
z"/>
<path fill="#F8F4EB" opacity="1.000000" stroke="none" 
	d="
M115.853447,53.061836 
	C117.062904,53.258087 118.272369,53.454334 119.740913,53.825291 
	C120.000000,59.022091 120.000000,64.044182 120.000000,69.533142 
	C118.568207,69.687485 117.136414,69.374962 115.386452,68.639183 
	C115.054581,67.157166 115.040878,66.098412 115.285706,64.862534 
	C115.346748,63.790646 115.149261,62.895863 114.961517,61.582905 
	C115.267426,58.798885 115.563591,56.433044 115.880951,53.815720 
	C115.885925,53.396770 115.869690,53.229305 115.853447,53.061836 
z"/>
<path fill="#F8F2E6" opacity="1.000000" stroke="none" 
	d="
M52.463184,120.000000 
	C51.673107,118.625702 51.346218,117.251411 51.346325,115.451233 
	C52.125259,114.974388 52.577194,114.923409 53.380932,114.918137 
	C54.446079,114.969971 55.159424,114.976105 56.088982,115.347481 
	C58.875057,115.757225 61.444916,115.801735 63.999931,115.950157 
	C63.985085,116.054070 64.066467,116.247604 64.167313,116.375793 
	C64.623962,116.621529 64.855865,116.482391 65.242737,115.935577 
	C66.356865,114.856094 67.192116,113.927612 68.273132,112.999512 
	C68.518898,112.999893 69.009796,113.024956 69.009796,113.024956 
	C70.038330,116.556992 66.978073,117.550888 65.060028,119.645538 
	C60.975456,120.000000 56.950912,120.000000 52.463184,120.000000 
z"/>
<path fill="#FAF6ED" opacity="1.000000" stroke="none" 
	d="
M1.000000,54.460636 
	C2.120328,53.580318 3.240657,53.160641 4.748276,53.153831 
	C5.229716,53.749046 5.323866,53.931396 5.372830,54.558945 
	C5.250852,57.060692 5.174059,59.117233 5.065248,61.589783 
	C5.169809,62.834648 5.306387,63.663509 5.393483,64.652710 
	C5.344000,64.813049 5.077888,65.017532 5.077888,65.017532 
	C3.953443,65.326691 2.828998,65.635849 1.352276,65.972504 
	C1.000000,62.307091 1.000000,58.614182 1.000000,54.460636 
z"/>
<path fill="#FDFCFB" opacity="1.000000" stroke="none" 
	d="
M55.000000,1.000000 
	C57.370556,1.000000 59.741116,1.000000 62.559280,1.348273 
	C63.336979,2.788573 63.667068,3.880599 63.664436,5.022853 
	C62.884319,5.090630 62.436928,5.108181 61.611870,5.077702 
	C60.474445,5.064706 59.714680,5.099739 58.630341,5.083073 
	C57.871632,5.008495 57.437504,4.985617 56.952503,4.636950 
	C56.267754,3.207440 55.633877,2.103720 55.000000,1.000000 
z"/>
<path fill="#F7F6F4" opacity="1.000000" stroke="none" 
	d="
M63.997158,4.972627 
	C63.667068,3.880599 63.336979,2.788573 63.003445,1.348273 
	C63.444447,1.000000 63.888889,1.000000 64.666672,1.000001 
	C65.642029,2.188795 66.284058,3.377588 66.576813,4.965453 
	C65.484085,5.233892 64.740623,5.103260 63.997158,4.972627 
z"/>
<path fill="#F7F6F4" opacity="1.000000" stroke="none" 
	d="
M54.666668,1.000000 
	C55.633877,2.103720 56.267754,3.207440 56.592979,4.760259 
	C55.527100,5.206183 54.769867,5.203008 53.984413,4.837589 
	C53.637459,3.316897 53.318729,2.158448 53.000000,1.000000 
	C53.444447,1.000000 53.888889,1.000000 54.666668,1.000000 
z"/>
<path fill="#F7F6F4" opacity="1.000000" stroke="none" 
	d="
M49.985321,5.841469 
	C49.989811,4.497946 49.994301,3.154423 49.999397,1.405450 
	C50.444447,1.000000 50.888889,1.000000 51.636902,1.339091 
	C52.021221,2.979767 52.101978,4.281353 51.999626,5.705581 
	C51.529484,5.896843 51.247646,5.982536 50.723988,6.026744 
	C50.313091,5.925947 50.149204,5.883708 49.985321,5.841469 
z"/>
<path fill="#FDFCFB" opacity="1.000000" stroke="none" 
	d="
M52.182735,5.582938 
	C52.101978,4.281353 52.021221,2.979767 51.970230,1.339091 
	C52.000000,1.000000 52.500000,1.000000 52.750000,1.000000 
	C53.318729,2.158448 53.637459,3.316897 53.713737,5.016891 
	C53.041771,5.566605 52.612255,5.574771 52.182735,5.582938 
z"/>
<path fill="#F7F6F4" opacity="1.000000" stroke="none" 
	d="
M70.666672,1.000000 
	C70.293373,1.875650 69.586739,2.751301 68.880112,3.626952 
	C68.842705,2.940346 68.805290,2.253738 68.883942,1.283566 
	C69.444443,1.000000 69.888893,1.000000 70.666672,1.000000 
z"/>
<path fill="#FAF6ED" opacity="1.000000" stroke="none" 
	d="
M1.000000,68.250000 
	C1.537463,67.953163 2.074926,67.906319 2.612390,67.859482 
	C2.257847,68.227074 1.903303,68.594666 1.274380,68.981125 
	C1.000000,69.000000 1.000000,68.500000 1.000000,68.250000 
z"/>
<path fill="#EED5A6" opacity="1.000000" stroke="none" 
	d="
M69.348747,113.012650 
	C69.009796,113.024956 68.518898,112.999893 67.972931,112.762558 
	C66.944077,110.611244 66.261070,108.722870 66.012375,106.778931 
	C64.834892,97.575119 63.776031,88.356125 62.639400,78.845482 
	C60.927036,81.122116 63.996441,85.742706 58.748859,85.992508 
	C58.748859,81.810875 58.748859,78.206581 58.714924,74.359146 
	C58.724228,73.789886 58.726486,73.463493 59.003063,73.124458 
	C61.213909,73.230217 63.695801,74.172958 64.899033,73.317413 
	C69.117104,70.318184 73.453438,67.106476 73.134621,60.885529 
	C73.093918,60.091164 74.272797,59.234295 74.290176,59.210857 
	C73.080048,56.216782 72.027611,53.612881 71.270386,50.869129 
	C73.055344,49.152740 74.545090,47.576206 76.370018,45.963783 
	C77.462883,44.959366 78.220573,43.990833 78.983109,43.017433 
	C78.987961,43.012566 78.993965,43.005974 79.222519,42.901192 
	C79.639275,42.525627 79.827484,42.254841 80.007805,41.991966 
	C79.999916,41.999878 79.984161,42.015728 80.215645,41.910988 
	C80.636368,41.532455 80.825615,41.258663 81.007401,40.992027 
	C80.999947,40.999191 80.983101,41.011208 81.295181,40.994610 
	C82.113121,40.647011 82.618973,40.316010 83.394173,39.834007 
	C84.422470,38.501011 85.181427,37.319008 86.313232,36.115273 
	C88.241089,37.300377 89.796082,38.507217 91.686363,39.974277 
	C88.598122,42.227139 86.585495,43.695347 84.572868,45.163555 
	C84.719109,45.390289 84.865349,45.617023 85.011589,45.843758 
	C87.613525,44.648281 90.215454,43.452808 93.122894,42.116970 
	C93.844231,43.947182 94.359283,45.254017 94.970413,46.804604 
	C91.381264,48.388847 88.137512,49.820633 84.893761,51.252415 
	C85.008270,51.492645 85.122780,51.732872 85.237282,51.973103 
	C89.565575,50.624908 93.893867,49.276718 98.511787,47.838314 
	C99.109833,50.095905 99.539749,51.718796 99.970398,53.344463 
	C96.884224,54.125172 94.430779,54.745819 91.977325,55.366470 
	C94.900421,56.010773 97.789619,55.638115 100.500427,56.171715 
	C101.809319,56.429371 102.782684,58.391575 103.907974,59.581978 
	C102.773193,60.388363 101.700150,61.758038 100.491516,61.890511 
	C97.443954,62.224533 94.335312,62.001141 91.251144,62.001141 
	C91.262566,62.251846 91.273987,62.502552 91.285400,62.753258 
	C93.033524,62.974045 94.781647,63.194832 96.961105,63.470097 
	C96.846718,65.415695 96.749474,67.069786 96.634521,69.025055 
	C91.322617,67.827286 86.720360,66.789528 82.118095,65.751778 
	C82.038788,66.045982 81.959473,66.340195 81.880165,66.634407 
	C85.518806,67.834579 89.157455,69.034752 93.085335,70.330330 
	C92.311501,72.210701 91.785904,73.487862 91.203117,74.903984 
	C88.201088,73.553886 85.565483,72.368576 82.929871,71.183273 
	C82.800743,71.438004 82.671616,71.692734 82.542488,71.947472 
	C86.895676,74.391609 91.248856,76.835754 96.284927,79.663307 
	C92.448586,83.934700 89.057129,87.710762 85.528030,91.640076 
	C86.509727,92.920868 87.762924,94.555870 89.251945,96.498543 
	C87.192703,97.826729 85.579491,98.867226 83.733353,100.057953 
	C82.487709,98.103325 81.444504,96.432396 80.367767,94.783363 
	C77.583809,90.519730 74.785049,86.265739 71.988312,81.765274 
	C71.868011,81.243690 71.751595,80.964745 71.635178,80.685799 
	C71.509628,80.772026 71.384079,80.858253 71.258530,80.944481 
	C71.508018,81.294716 71.757515,81.644951 72.043388,82.355820 
	C74.761993,88.030739 77.265602,93.445259 80.176025,98.631470 
	C83.162895,103.953896 82.762154,105.031853 76.016037,106.299614 
	C73.270767,98.499374 70.500854,90.629128 67.730942,82.758873 
	C68.825096,90.243530 70.695320,97.502571 72.859245,104.672966 
	C73.834564,107.904778 74.989410,110.872093 71.035759,112.872520 
	C70.586403,112.915123 70.137054,112.957733 69.348747,113.012650 
M79.900322,75.714592 
	C79.811592,75.663551 79.722855,75.612511 79.634125,75.561470 
	C79.757591,75.706467 79.881058,75.851471 80.329399,76.497025 
	C80.886055,76.664886 81.442703,76.832748 82.063354,77.646805 
	C82.707626,78.099709 83.351891,78.552612 84.238007,79.427567 
	C84.596489,79.411903 84.954964,79.396248 85.313446,79.380585 
	C84.877632,79.251732 84.441818,79.122887 83.774452,78.457237 
	C83.183105,77.971283 82.591751,77.485336 81.670074,76.502609 
	C81.112137,76.336655 80.554199,76.170700 79.900322,75.714592 
M78.013153,81.485809 
	C78.136772,81.765167 78.260384,82.044525 78.384003,82.323883 
	C78.511497,82.236565 78.638985,82.149239 78.766472,82.061913 
	C78.509712,81.708824 78.252945,81.355736 77.756592,80.584343 
	C77.403122,80.603416 77.049660,80.622490 76.696190,80.641563 
	C77.132217,80.759613 77.568245,80.877670 78.013153,81.485809 
M89.679436,82.626953 
	C89.075974,82.219559 88.472511,81.812164 87.869057,81.404762 
	C87.729660,81.796700 87.590271,82.188637 87.450874,82.580574 
	C88.185814,82.800705 88.920761,83.020844 89.679436,82.626953 
M81.337898,86.369385 
	C81.936317,86.779739 82.534737,87.190102 83.133156,87.600456 
	C83.270729,87.207130 83.408310,86.813812 83.545891,86.420479 
	C82.816757,86.199394 82.087631,85.978302 81.337898,86.369385 
M78.483360,69.597298 
	C78.483360,69.597298 78.404198,69.475204 78.483360,69.597298 
M80.520149,70.401909 
	C80.520149,70.401909 80.601730,70.525032 80.520149,70.401909 
z"/>
<path fill="#D9BF83" opacity="1.000000" stroke="none" 
	d="
M71.318802,113.026093 
	C74.989410,110.872093 73.834564,107.904778 72.859245,104.672966 
	C70.695320,97.502571 68.825096,90.243530 67.730942,82.758873 
	C70.500854,90.629128 73.270767,98.499374 76.016037,106.299614 
	C82.762154,105.031853 83.162895,103.953896 80.176025,98.631470 
	C77.265602,93.445259 74.761993,88.030739 72.039742,82.358368 
	C71.999710,82.000275 71.992203,82.007904 71.992203,82.007904 
	C74.785049,86.265739 77.583809,90.519730 80.367767,94.783363 
	C81.444504,96.432396 82.487709,98.103325 83.733353,100.057953 
	C85.579491,98.867226 87.192703,97.826729 89.251945,96.498543 
	C87.762924,94.555870 86.509727,92.920868 85.528030,91.640076 
	C89.057129,87.710762 92.448586,83.934700 96.284927,79.663307 
	C91.248856,76.835754 86.895676,74.391609 82.542488,71.947472 
	C82.671616,71.692734 82.800743,71.438004 82.929871,71.183273 
	C85.565483,72.368576 88.201088,73.553886 91.203117,74.903984 
	C91.785904,73.487862 92.311501,72.210701 93.085335,70.330330 
	C89.157455,69.034752 85.518806,67.834579 81.880165,66.634407 
	C81.959473,66.340195 82.038788,66.045982 82.118095,65.751778 
	C86.720360,66.789528 91.322617,67.827286 96.634521,69.025055 
	C96.749474,67.069786 96.846718,65.415695 96.961105,63.470097 
	C94.781647,63.194832 93.033524,62.974045 91.285400,62.753258 
	C91.273987,62.502552 91.262566,62.251846 91.251144,62.001141 
	C94.335312,62.001141 97.443954,62.224533 100.491516,61.890511 
	C101.700150,61.758038 102.773193,60.388363 103.907974,59.581978 
	C102.782684,58.391575 101.809319,56.429371 100.500427,56.171715 
	C97.789619,55.638115 94.900421,56.010773 91.977325,55.366470 
	C94.430779,54.745819 96.884224,54.125172 99.970398,53.344463 
	C99.539749,51.718796 99.109833,50.095905 98.511787,47.838314 
	C93.893867,49.276718 89.565575,50.624908 85.237282,51.973103 
	C85.122780,51.732872 85.008270,51.492645 84.893761,51.252415 
	C88.137512,49.820633 91.381264,48.388847 94.970413,46.804604 
	C94.359283,45.254017 93.844231,43.947182 93.122894,42.116970 
	C90.215454,43.452808 87.613525,44.648281 85.011589,45.843758 
	C84.865349,45.617023 84.719109,45.390289 84.572868,45.163555 
	C86.585495,43.695347 88.598122,42.227139 91.686363,39.974277 
	C89.796082,38.507217 88.241089,37.300377 86.449219,35.808235 
	C87.019966,34.508461 87.827599,33.493988 89.628761,31.231520 
	C86.283310,30.557793 83.868965,30.071577 81.679939,29.630737 
	C84.642479,23.524300 84.642479,23.524300 78.460968,22.202236 
	C75.953262,27.485052 73.402710,32.858147 70.852150,38.231243 
	C71.164215,34.429710 72.831535,31.197599 73.800072,27.768141 
	C74.268112,26.110851 73.422791,24.082642 73.172127,22.222378 
	C71.472900,22.944613 69.773682,23.666849 67.513199,24.627642 
	C66.346077,24.293119 64.166496,23.668407 61.771645,23.134871 
	C61.286865,23.413033 61.115883,23.666500 61.030563,24.455681 
	C61.017700,31.225330 61.017700,37.525753 61.017700,43.826172 
	C60.677204,43.822052 60.336704,43.817936 59.996208,43.813816 
	C59.996208,37.209785 59.996208,30.605759 59.996979,23.540157 
	C59.645893,19.045774 59.294037,15.012967 59.004158,10.565228 
	C59.029060,8.478455 58.991989,6.806613 58.954918,5.134772 
	C59.714680,5.099739 60.474445,5.064706 61.582508,5.530638 
	C61.930809,10.583055 61.930809,15.134507 61.930809,19.823421 
	C63.968082,19.823421 65.881538,19.823421 68.278664,19.823421 
	C68.965576,15.123818 69.629044,10.584639 70.292519,6.045459 
	C71.125214,6.148721 71.957909,6.251983 72.955589,7.035420 
	C72.400253,11.050378 71.679924,14.385159 70.905571,17.970057 
	C73.075829,18.657568 74.899818,19.235386 77.183311,19.958767 
	C78.569046,16.148254 79.851089,12.622862 81.133141,9.097469 
	C82.004517,9.451822 82.875900,9.806174 83.757523,10.745867 
	C82.722984,13.532424 81.678215,15.733642 80.488785,18.239634 
	C82.648369,19.433777 84.441910,20.425514 86.336761,21.473267 
	C88.201118,18.960114 89.766335,16.850210 91.331543,14.740306 
	C91.878540,15.024046 92.425545,15.307788 93.012138,16.215614 
	C91.032242,19.623842 89.012749,22.407986 86.778625,25.488016 
	C88.464828,26.913664 90.012970,28.222580 91.686127,29.637190 
	C94.626877,26.843439 97.234924,24.365767 99.842964,21.888092 
	C100.292252,22.272091 100.741539,22.656088 101.087891,23.681580 
	C97.754715,27.337580 94.524483,30.352087 91.156929,33.494759 
	C92.487801,35.218216 93.558098,36.604225 94.659386,38.030365 
	C98.916618,35.493752 102.873970,33.135818 106.831329,30.777882 
	C107.246513,31.246161 107.661705,31.714439 107.814255,32.713394 
	C103.656242,35.574364 99.760857,37.904659 95.802414,40.272678 
	C96.829872,42.216702 97.586433,43.648174 98.448677,45.279610 
	C102.974617,43.767006 107.296555,42.322582 111.618492,40.878159 
	C112.058151,41.423607 112.497803,41.969055 112.550430,42.876942 
	C108.817986,44.386623 105.472588,45.533863 101.957970,46.739136 
	C102.568512,49.047607 103.055992,50.890766 103.636429,53.085392 
	C107.531960,52.351192 111.196083,51.660606 114.860207,50.970016 
	C115.031517,51.545547 115.202827,52.121082 115.613785,52.879227 
	C115.869690,53.229305 115.885925,53.396770 115.468918,53.795334 
	C112.454147,54.382343 109.872627,54.738258 107.272842,55.096691 
	C107.272842,57.509693 107.272842,59.568829 107.272842,62.001083 
	C110.050377,62.001083 112.501076,62.001083 114.951775,62.001083 
	C115.149261,62.895863 115.346748,63.790646 114.842583,64.832695 
	C109.904053,64.633904 105.667183,64.287842 101.282318,63.929695 
	C100.841934,66.011261 100.479523,67.724228 99.992752,70.025040 
	C104.856049,71.023682 109.472916,71.971718 114.089783,72.919754 
	C113.967522,73.851700 113.845253,74.783638 113.113274,75.794235 
	C107.306778,74.322647 102.110001,72.772408 96.627945,71.137070 
	C95.987152,73.075623 95.447166,74.709198 94.914436,76.320831 
	C100.258385,79.037476 105.224586,81.562096 110.190796,84.086716 
	C108.040817,87.696335 105.890846,91.305962 103.088341,94.967026 
	C99.720146,92.903519 97.004486,90.788574 94.201370,88.605522 
	C92.455589,90.091988 90.996811,91.334076 89.319504,92.762238 
	C92.313545,96.080994 94.749168,98.780777 97.184799,101.480560 
	C96.704460,102.024437 96.224129,102.568314 95.127823,102.968872 
	C93.532249,101.740967 92.552650,100.656372 91.398170,99.378143 
	C89.377312,100.775513 87.543800,102.043335 85.625313,103.369919 
	C86.581459,105.254913 87.320030,106.710983 88.058609,108.167046 
	C86.964386,108.641083 85.907593,109.261261 84.766792,109.553452 
	C83.220512,109.949509 80.587173,109.608940 80.198433,110.428185 
	C78.187317,114.666412 74.846596,113.533287 71.318802,113.026093 
M98.251060,82.310410 
	C97.444893,83.670547 96.638718,85.030678 95.677849,86.651810 
	C98.020729,88.350334 100.054726,89.824928 102.345642,91.485779 
	C103.872169,89.000046 105.027290,87.119118 106.579666,84.591309 
	C103.590012,83.515800 101.227486,82.665901 98.251060,82.310410 
z"/>
<path fill="#2D4A76" opacity="1.000000" stroke="none" 
	d="
M110.443237,83.847687 
	C105.224586,81.562096 100.258385,79.037476 94.914436,76.320831 
	C95.447166,74.709198 95.987152,73.075623 96.627945,71.137070 
	C102.110001,72.772408 107.306778,74.322647 112.891174,75.964371 
	C112.417755,78.573456 111.556709,81.091057 110.443237,83.847687 
z"/>
<path fill="#2E4A76" opacity="1.000000" stroke="none" 
	d="
M114.140884,72.582878 
	C109.472916,71.971718 104.856049,71.023682 99.992752,70.025040 
	C100.479523,67.724228 100.841934,66.011261 101.282318,63.929695 
	C105.667183,64.287842 109.904053,64.633904 114.584053,65.009811 
	C115.040878,66.098412 115.054581,67.157166 115.128662,68.609055 
	C114.856697,70.083450 114.524338,71.164726 114.140884,72.582878 
z"/>
<path fill="#354F78" opacity="1.000000" stroke="none" 
	d="
M97.488480,101.324341 
	C94.749168,98.780777 92.313545,96.080994 89.319504,92.762238 
	C90.996811,91.334076 92.455589,90.091988 94.201370,88.605522 
	C97.004486,90.788574 99.720146,92.903519 102.783035,95.128563 
	C101.350906,97.215149 99.571533,99.191643 97.488480,101.324341 
z"/>
<path fill="#354F79" opacity="1.000000" stroke="none" 
	d="
M88.392380,108.085190 
	C87.320030,106.710983 86.581459,105.254913 85.625313,103.369919 
	C87.543800,102.043335 89.377312,100.775513 91.398170,99.378143 
	C92.552650,100.656372 93.532249,101.740967 94.840775,103.003448 
	C93.021851,104.788673 90.874001,106.396004 88.392380,108.085190 
z"/>
<path fill="#2C4A76" opacity="1.000000" stroke="none" 
	d="
M69.949326,5.982831 
	C69.629044,10.584639 68.965576,15.123818 68.278664,19.823421 
	C65.881538,19.823421 63.968082,19.823421 61.930809,19.823421 
	C61.930809,15.134507 61.930809,10.583055 61.960171,5.578667 
	C62.436928,5.108181 62.884319,5.090630 63.664436,5.022853 
	C64.740623,5.103260 65.484085,5.233892 66.604431,5.314726 
	C67.856247,5.483353 68.731186,5.701778 69.949326,5.982831 
z"/>
<path fill="#314C77" opacity="1.000000" stroke="none" 
	d="
M106.726517,30.480518 
	C102.873970,33.135818 98.916618,35.493752 94.659386,38.030365 
	C93.558098,36.604225 92.487801,35.218216 91.156929,33.494759 
	C94.524483,30.352087 97.754715,27.337580 101.153656,23.984053 
	C103.088821,25.824408 104.855263,28.003780 106.726517,30.480518 
z"/>
<path fill="#314C76" opacity="1.000000" stroke="none" 
	d="
M111.644783,40.491821 
	C107.296555,42.322582 102.974617,43.767006 98.448677,45.279610 
	C97.586433,43.648174 96.829872,42.216702 95.802414,40.272678 
	C99.760857,37.904659 103.656242,35.574364 107.850349,33.042572 
	C109.323074,35.262547 110.497078,37.684013 111.644783,40.491821 
z"/>
<path fill="#324D76" opacity="1.000000" stroke="none" 
	d="
M114.871094,50.595695 
	C111.196083,51.660606 107.531960,52.351192 103.636429,53.085392 
	C103.055992,50.890766 102.568512,49.047607 101.957970,46.739136 
	C105.472588,45.533863 108.817986,44.386623 112.521545,43.170399 
	C113.547127,45.474735 114.214554,47.848053 114.871094,50.595695 
z"/>
<path fill="#324D77" opacity="1.000000" stroke="none" 
	d="
M80.771553,8.970716 
	C79.851089,12.622862 78.569046,16.148254 77.183311,19.958767 
	C74.899818,19.235386 73.075829,18.657568 70.905571,17.970057 
	C71.679924,14.385159 72.400253,11.050378 73.142380,7.294457 
	C75.579437,7.530199 77.994705,8.187080 80.771553,8.970716 
z"/>
<path fill="#334D77" opacity="1.000000" stroke="none" 
	d="
M99.715469,21.601067 
	C97.234924,24.365767 94.626877,26.843439 91.686127,29.637190 
	C90.012970,28.222580 88.464828,26.913664 86.778625,25.488016 
	C89.012749,22.407986 91.032242,19.623842 93.139084,16.503742 
	C95.346947,17.883204 97.467461,19.598621 99.715469,21.601067 
z"/>
<path fill="#304C77" opacity="1.000000" stroke="none" 
	d="
M91.119881,14.470752 
	C89.766335,16.850210 88.201118,18.960114 86.336761,21.473267 
	C84.441910,20.425514 82.648369,19.433777 80.488785,18.239634 
	C81.678215,15.733642 82.722984,13.532424 83.927612,10.984236 
	C86.361046,11.825241 88.634628,13.013219 91.119881,14.470752 
z"/>
<path fill="#2D4976" opacity="1.000000" stroke="none" 
	d="
M58.687763,73.136818 
	C58.726486,73.463493 58.724228,73.789886 58.497440,74.716110 
	C56.552307,88.501633 54.790718,101.687035 53.029133,114.872437 
	C52.577194,114.923409 52.125259,114.974388 51.338562,115.094360 
	C49.489914,114.801521 47.976032,114.439697 46.046028,113.565063 
	C46.093586,110.947853 46.529961,108.836967 47.026207,106.740257 
	C48.357159,101.116829 49.713745,95.499458 51.217041,89.655991 
	C51.795670,88.964561 52.217415,88.496826 52.639156,88.029099 
	C52.356647,87.815033 52.074139,87.600967 51.791630,87.386894 
	C51.196514,88.263992 50.601398,89.141098 49.921387,90.375153 
	C47.229462,97.986549 44.622440,105.240997 42.015419,112.495445 
	C39.747478,111.585464 37.479534,110.675491 35.156700,109.164017 
	C35.956238,106.963341 36.877167,105.395691 37.653133,103.759300 
	C40.451561,97.857880 43.201153,91.933304 46.314518,85.961060 
	C47.452114,84.612198 48.244377,83.319756 49.036640,82.027313 
	C48.465755,81.791557 47.894867,81.555794 47.323982,81.320038 
	C46.877190,82.890480 46.430401,84.460922 45.653099,86.119102 
	C40.861511,93.400215 36.400429,100.593582 31.939346,107.786949 
	C29.962374,106.445915 27.985401,105.104874 26.004936,103.162270 
	C29.767035,97.799934 33.532627,93.039169 37.567692,88.084244 
	C38.586189,86.847572 39.335213,85.805061 40.084236,84.762550 
	C39.729687,84.490692 39.375141,84.218842 39.020596,83.946991 
	C38.140129,85.053413 37.259663,86.159843 36.087120,87.432297 
	C31.525473,92.080559 27.255909,96.562798 22.986345,101.045036 
	C21.298008,99.283401 19.609673,97.521767 18.114014,95.259857 
	C23.881617,90.145958 29.456541,85.532341 35.031464,80.918724 
	C34.775135,80.552185 34.518806,80.185646 34.262478,79.819115 
	C32.840927,80.715698 31.403852,81.588730 30.000628,82.513138 
	C25.030870,85.787056 20.072678,89.078537 15.110107,92.363373 
	C13.937543,90.248215 12.764977,88.133049 11.876906,85.690491 
	C18.821766,81.973145 25.482132,78.583214 32.142498,75.193283 
	C31.909075,74.705505 31.675653,74.217728 31.442230,73.729958 
	C24.310825,76.825706 17.179419,79.921455 10.048011,83.017197 
	C9.175563,80.668633 8.303117,78.320076 7.858247,75.554924 
	C15.163478,73.165009 22.041134,71.191681 28.933762,68.954376 
	C28.778671,68.405685 28.608606,68.120979 28.438541,67.836273 
	C28.292538,68.191765 28.146536,68.547249 27.641411,68.834518 
	C26.205181,68.741257 25.095921,68.535767 24.056280,68.720993 
	C18.105145,69.781319 12.170556,70.934525 6.230351,72.056198 
	C5.908834,69.972961 5.587317,67.889732 5.171844,65.412018 
	C5.077888,65.017532 5.344000,64.813049 5.827782,64.600739 
	C13.891479,63.804504 21.471395,63.220570 29.457167,62.682602 
	C32.900349,62.432209 35.937672,62.135853 39.413368,61.904800 
	C41.889709,61.794384 43.927677,61.618660 46.296997,61.536026 
	C47.055229,61.794353 47.482105,61.959599 47.839653,62.466225 
	C48.271236,64.833168 48.772156,66.858719 48.965843,68.937927 
	C48.364094,69.516319 48.069580,70.041069 47.775063,70.565819 
	C48.509293,70.078362 49.243519,69.590904 50.320179,69.156021 
	C53.337662,70.518005 56.012711,71.827415 58.687763,73.136818 
M53.328724,73.921555 
	C53.191826,73.928749 53.054928,73.935936 52.658558,74.094032 
	C52.790096,74.087921 52.921635,74.081818 53.328724,73.921555 
M45.779530,77.623032 
	C46.808838,76.775543 47.838146,75.928055 48.867455,75.080566 
	C48.459103,74.709587 48.050755,74.338600 47.642403,73.967621 
	C46.878582,75.039749 46.114761,76.111870 45.779530,77.623032 
M39.689110,77.495895 
	C38.081272,74.989517 37.519413,77.723885 36.652912,78.765411 
	C37.542622,78.519859 38.432331,78.274307 39.689110,77.495895 
M41.621765,82.197617 
	C42.415157,81.581284 43.208553,80.964951 44.001945,80.348618 
	C43.590088,79.994774 43.178230,79.640930 42.766373,79.287086 
	C42.420177,80.058609 42.073982,80.830132 41.621765,82.197617 
M35.678623,72.818504 
	C34.797459,72.936256 33.916294,73.054008 33.035130,73.171753 
	C33.131546,73.493057 33.227959,73.814362 33.324375,74.135666 
	C34.065887,73.864540 34.807404,73.593414 35.678623,72.818504 
M50.110722,76.878441 
	C49.850742,77.650604 49.590767,78.422768 49.330788,79.194931 
	C49.713825,79.274345 50.096863,79.353760 50.479900,79.433174 
	C50.479900,78.443649 50.479900,77.454117 50.110722,76.878441 
M33.460548,67.818962 
	C33.412594,67.388000 33.364643,66.957047 33.316692,66.526085 
	C32.945396,66.703743 32.574097,66.881401 32.202797,67.059059 
	C32.490570,67.441277 32.778343,67.823486 33.460548,67.818962 
M55.101101,76.300285 
	C54.875542,76.607559 54.649979,76.914833 54.424419,77.222115 
	C54.750648,77.014107 55.076878,76.806099 55.101101,76.300285 
M44.003716,72.717026 
	C43.840900,72.982323 43.678085,73.247612 43.515274,73.512909 
	C43.779728,73.347588 44.044182,73.182259 44.003716,72.717026 
M37.820301,71.969658 
	C37.725597,71.566277 37.630894,71.162888 37.536194,70.759506 
	C37.416100,70.847794 37.184559,70.951469 37.194279,71.021812 
	C37.250862,71.431335 37.364098,71.833031 37.820301,71.969658 
M44.331455,68.351433 
	C44.577690,68.469559 44.823925,68.587685 45.070156,68.705818 
	C45.141945,68.469490 45.213730,68.233170 45.285519,67.996841 
	C44.946556,67.971436 44.607594,67.946030 44.331455,68.351433 
M37.737045,66.183777 
	C37.623058,66.026970 37.509071,65.870155 37.395081,65.713348 
	C37.418076,65.931297 37.441074,66.149254 37.737045,66.183777 
M46.411987,64.481979 
	C46.411987,64.481979 46.523083,64.415276 46.411987,64.481979 
z"/>
<path fill="#C8B382" opacity="1.000000" stroke="none" 
	d="
M45.969185,86.017471 
	C43.201153,91.933304 40.451561,97.857880 37.653133,103.759300 
	C36.877167,105.395691 35.956238,106.963341 34.922974,108.889008 
	C33.892963,108.901497 33.041790,108.587502 32.064983,108.030228 
	C36.400429,100.593582 40.861511,93.400215 45.661556,86.103081 
	C46.000519,85.999321 45.969185,86.017471 45.969185,86.017471 
z"/>
<path fill="#C8B281" opacity="1.000000" stroke="none" 
	d="
M51.060150,89.879684 
	C49.713745,95.499458 48.357159,101.116829 47.026207,106.740257 
	C46.529961,108.836967 46.093586,110.947853 45.658524,113.461662 
	C44.612652,113.539078 43.538162,113.207100 42.239548,112.685287 
	C44.622440,105.240997 47.229462,97.986549 50.180054,90.304016 
	C50.702465,89.877182 50.881306,89.878433 51.060150,89.879684 
z"/>
<path fill="#C8B381" opacity="1.000000" stroke="none" 
	d="
M10.068098,83.384865 
	C17.179419,79.921455 24.310825,76.825706 31.442230,73.729958 
	C31.675653,74.217728 31.909075,74.705505 32.142498,75.193283 
	C25.482132,78.583214 18.821766,81.973145 11.800306,85.388550 
	C10.988869,84.860184 10.538527,84.306358 10.068098,83.384865 
z"/>
<path fill="#C6B181" opacity="1.000000" stroke="none" 
	d="
M6.138227,72.362488 
	C12.170556,70.934525 18.105145,69.781319 24.056280,68.720993 
	C25.095921,68.535767 26.205181,68.741257 27.864017,68.933792 
	C28.445747,69.101295 28.918787,69.218353 28.918787,69.218353 
	C22.041134,71.191681 15.163478,73.165009 7.837763,75.167435 
	C6.941835,74.353951 6.493969,73.511360 6.138227,72.362488 
z"/>
<path fill="#CBB582" opacity="1.000000" stroke="none" 
	d="
M15.183547,92.627762 
	C20.072678,89.078537 25.030870,85.787056 30.000628,82.513138 
	C31.403852,81.588730 32.840927,80.715698 34.262478,79.819115 
	C34.518806,80.185646 34.775135,80.552185 35.031464,80.918724 
	C29.456541,85.532341 23.881617,90.145958 18.000370,94.941757 
	C16.881691,94.380005 16.069340,93.636070 15.183547,92.627762 
z"/>
<path fill="#C9B381" opacity="1.000000" stroke="none" 
	d="
M23.092751,101.322052 
	C27.255909,96.562798 31.525473,92.080559 36.301125,87.699631 
	C36.970882,87.960091 37.134548,88.119240 37.298218,88.278397 
	C33.532627,93.039169 29.767035,97.799934 25.810055,102.865784 
	C24.812164,102.646927 24.005661,102.122993 23.092751,101.322052 
z"/>
<path fill="#D6BD83" opacity="1.000000" stroke="none" 
	d="
M38.974998,61.839493 
	C35.937672,62.135853 32.900349,62.432209 29.417336,62.422924 
	C28.637941,61.740875 28.304235,61.364471 27.995443,60.557205 
	C27.351759,58.741982 26.832352,56.260960 25.990992,56.146500 
	C19.167440,55.218201 12.283531,54.733582 5.418017,54.113743 
	C5.323866,53.931396 5.229716,53.749046 5.021559,53.280594 
	C5.213683,52.409924 5.519814,51.825363 6.409498,51.013733 
	C11.331282,51.504101 15.669512,52.221542 20.219143,52.973938 
	C20.772789,50.902409 21.225870,49.207153 21.785536,47.113094 
	C17.061708,45.610477 12.526333,44.167805 7.990956,42.725132 
	C8.246923,41.937775 8.502890,41.150414 9.322136,40.189934 
	C17.564516,43.338341 17.564516,43.338341 19.676369,36.432163 
	C17.446302,35.161728 15.158452,33.858379 12.870602,32.555027 
	C13.272528,31.761583 13.674455,30.968140 14.581205,30.250338 
	C16.404539,31.159151 17.723047,31.992325 19.140663,32.888126 
	C20.729065,30.781555 22.047945,29.032431 23.384104,27.260389 
	C21.941454,25.693842 20.852251,24.511097 19.763048,23.328350 
	C22.618587,20.644762 25.474127,17.961174 28.908512,15.246660 
	C30.323587,15.811048 31.159817,16.406361 32.141411,17.308067 
	C35.196262,22.405859 38.105751,27.197256 41.006767,31.995155 
	C40.998291,32.001659 40.982094,32.017555 40.634270,31.983063 
	C37.362080,28.461685 34.437714,24.974802 31.151180,21.056086 
	C29.472582,22.518225 27.839710,23.940531 26.759785,24.881197 
	C28.089012,27.811455 29.073238,29.981165 29.745283,31.979143 
	C25.114195,28.426285 23.927397,31.751547 22.335827,35.109238 
	C27.804049,38.845341 33.110668,42.471031 38.417290,46.096722 
	C38.226398,46.390339 38.035511,46.683956 37.844620,46.977573 
	C33.165951,44.302925 28.487284,41.628273 23.878876,38.993790 
	C19.954477,43.754604 20.051386,44.176056 24.925940,46.129177 
	C29.045321,47.779713 33.136555,49.500496 37.240242,51.190189 
	C34.509300,51.445343 32.021965,50.894115 29.672213,49.986649 
	C26.350409,48.703781 24.208174,48.944405 24.249447,53.684464 
	C30.534130,54.920681 36.790001,56.151226 43.045872,57.381775 
	C40.871887,57.811401 38.823170,57.179684 36.787350,57.218807 
	C35.222874,57.248875 33.674641,58.123753 32.119179,58.622932 
	C33.426216,59.415588 34.666363,60.373234 36.064888,60.940220 
	C36.930992,61.291351 38.037716,61.048981 39.020901,61.264629 
	C39.005375,61.456234 38.974998,61.839493 38.974998,61.839493 
z"/>
<path fill="#D5BC85" opacity="1.000000" stroke="none" 
	d="
M31.996044,17.001675 
	C31.159817,16.406361 30.323587,15.811048 29.204525,15.085728 
	C33.932499,12.737319 38.942780,10.517719 43.954407,8.301161 
	C45.712551,7.523565 47.473999,6.753438 49.609627,5.910685 
	C50.149204,5.883708 50.313091,5.925947 50.721382,6.435429 
	C50.942760,13.508023 55.885410,10.399508 58.942181,10.980160 
	C59.294037,15.012967 59.645893,19.045774 59.705795,23.254446 
	C59.140808,20.389217 58.867775,17.348125 58.596806,14.330007 
	C52.921185,14.076494 52.451454,17.162891 53.184635,21.095369 
	C54.227337,26.687960 55.289295,32.276962 56.343025,37.867496 
	C56.012329,37.929073 55.681633,37.990654 55.350937,38.052235 
	C53.367611,29.774244 51.384285,21.496258 49.419971,13.297629 
	C42.626080,13.697618 42.285351,14.304223 44.348381,19.871122 
	C46.069798,24.516205 47.468906,29.280729 49.005165,33.996391 
	C48.999569,34.000431 48.989128,34.010998 48.712139,33.809402 
	C45.089180,26.727322 41.743210,19.846836 38.084915,12.324107 
	C35.707527,14.150455 33.851788,15.576066 31.996044,17.001675 
z"/>
<path fill="#2E4A76" opacity="1.000000" stroke="none" 
	d="
M7.659703,42.947021 
	C12.526333,44.167805 17.061708,45.610477 21.785536,47.113094 
	C21.225870,49.207153 20.772789,50.902409 20.219143,52.973938 
	C15.669512,52.221542 11.331282,51.504101 6.574207,50.728184 
	C6.546392,48.169441 6.937421,45.669178 7.659703,42.947021 
z"/>
<path fill="#334E78" opacity="1.000000" stroke="none" 
	d="
M12.598911,32.779099 
	C15.158452,33.858379 17.446302,35.161728 19.676369,36.432163 
	C17.564516,43.338341 17.564516,43.338341 9.520441,39.941322 
	C10.212719,37.578274 11.269971,35.290722 12.598911,32.779099 
z"/>
<path fill="#385178" opacity="1.000000" stroke="none" 
	d="
M19.497211,23.466614 
	C20.852251,24.511097 21.941454,25.693842 23.384104,27.260389 
	C22.047945,29.032431 20.729065,30.781555 19.140663,32.888126 
	C17.723047,31.992325 16.404539,31.159151 14.811146,30.098866 
	C16.101299,27.782793 17.666336,25.693834 19.497211,23.466614 
z"/>
<path fill="#294775" opacity="1.000000" stroke="none" 
	d="
M114.961517,61.582905 
	C112.501076,62.001083 110.050377,62.001083 107.272842,62.001083 
	C107.272842,59.568829 107.272842,57.509693 107.272842,55.096691 
	C109.872627,54.738258 112.454147,54.382343 115.447708,54.046814 
	C115.563591,56.433044 115.267426,58.798885 114.961517,61.582905 
z"/>
<path fill="#2E4A75" opacity="1.000000" stroke="none" 
	d="
M64.014778,115.846245 
	C61.444916,115.801735 58.875057,115.757225 56.155220,114.924576 
	C56.734791,105.939896 57.464336,97.743362 58.209148,89.375320 
	C61.021126,88.924355 62.714184,89.239624 62.824112,92.605591 
	C63.077271,100.357170 63.600895,108.099915 64.014778,115.846245 
z"/>
<path fill="#CEB781" opacity="1.000000" stroke="none" 
	d="
M63.999931,115.950157 
	C63.600895,108.099915 63.077271,100.357170 62.824112,92.605591 
	C62.714184,89.239624 61.021126,88.924355 58.209148,89.375320 
	C57.464336,97.743362 56.734791,105.939896 55.939011,114.559341 
	C55.159424,114.976105 54.446079,114.969971 53.380932,114.918137 
	C54.790718,101.687035 56.552307,88.501633 58.531376,74.959259 
	C58.748859,78.206581 58.748859,81.810875 58.748859,85.992508 
	C63.996441,85.742706 60.927036,81.122116 62.639400,78.845482 
	C63.776031,88.356125 64.834892,97.575119 66.012375,106.778931 
	C66.261070,108.722870 66.944077,110.611244 67.727165,112.762177 
	C67.192116,113.927612 66.356865,114.856094 65.011940,115.939377 
	C64.502258,116.094185 64.066467,116.247604 64.066467,116.247604 
	C64.066467,116.247604 63.985085,116.054070 63.999931,115.950157 
z"/>
<path fill="#FDFCFB" opacity="1.000000" stroke="none" 
	d="
M64.167313,116.375793 
	C64.066467,116.247604 64.502258,116.094185 64.733063,116.090378 
	C64.855865,116.482391 64.623962,116.621529 64.167313,116.375793 
z"/>
<path fill="#2D4A76" opacity="1.000000" stroke="none" 
	d="
M5.372830,54.558945 
	C12.283531,54.733582 19.167440,55.218201 25.990992,56.146500 
	C26.832352,56.260960 27.351759,58.741982 27.529030,60.568924 
	C19.724224,61.065598 12.410745,61.119686 5.097266,61.173775 
	C5.174059,59.117233 5.250852,57.060692 5.372830,54.558945 
z"/>
<path fill="#C1AD81" opacity="1.000000" stroke="none" 
	d="
M5.065248,61.589783 
	C12.410745,61.119686 19.724224,61.065598 27.504116,60.999786 
	C28.304235,61.364471 28.637941,61.740875 29.011480,62.376961 
	C21.471395,63.220570 13.891479,63.804504 5.877265,64.440399 
	C5.306387,63.663509 5.169809,62.834648 5.065248,61.589783 
z"/>
<path fill="#304D79" opacity="1.000000" stroke="none" 
	d="
M59.004158,10.565228 
	C55.885410,10.399508 50.942760,13.508023 50.968391,6.493986 
	C51.247646,5.982536 51.529484,5.896843 51.999626,5.705580 
	C52.612255,5.574771 53.041771,5.566605 53.741962,5.379135 
	C54.769867,5.203008 55.527100,5.206183 56.643852,5.086049 
	C57.437504,4.985617 57.871632,5.008495 58.630341,5.083073 
	C58.991989,6.806613 59.029060,8.478455 59.004158,10.565228 
z"/>
<path fill="#EED5A6" opacity="1.000000" stroke="none" 
	d="
M49.010757,33.992355 
	C47.468906,29.280729 46.069798,24.516205 44.348381,19.871122 
	C42.285351,14.304223 42.626080,13.697618 49.419971,13.297629 
	C51.384285,21.496258 53.367611,29.774244 55.350937,38.052235 
	C55.681633,37.990654 56.012329,37.929073 56.343025,37.867496 
	C55.289295,32.276962 54.227337,26.687960 53.184635,21.095369 
	C52.451454,17.162891 52.921185,14.076494 58.596806,14.330007 
	C58.867775,17.348125 59.140808,20.389217 59.705025,23.716019 
	C59.996208,30.605759 59.996208,37.209785 59.996208,43.813816 
	C60.336704,43.817936 60.677204,43.822052 61.017700,43.826172 
	C61.017700,37.525753 61.017700,31.225330 61.235970,24.352566 
	C61.710850,23.591896 61.888409,23.346388 61.986916,23.043694 
	C64.166496,23.668407 66.346077,24.293119 67.513199,24.627642 
	C69.773682,23.666849 71.472900,22.944613 73.172127,22.222378 
	C73.422791,24.082642 74.268112,26.110851 73.800072,27.768141 
	C72.831535,31.197599 71.164215,34.429710 70.852150,38.231243 
	C73.402710,32.858147 75.953262,27.485052 78.460968,22.202236 
	C84.642479,23.524300 84.642479,23.524300 81.679939,29.630737 
	C83.868965,30.071577 86.283310,30.557793 89.628761,31.231520 
	C87.827599,33.493988 87.019966,34.508461 86.076355,35.829971 
	C85.181427,37.319008 84.422470,38.501011 83.073898,39.844200 
	C81.983879,40.340664 81.483490,40.675934 80.983101,41.011208 
	C80.983101,41.011208 80.999947,40.999191 80.780708,41.102642 
	C80.369034,41.475971 80.176598,41.745850 79.984161,42.015728 
	C79.984161,42.015728 79.999916,41.999878 79.782684,42.101368 
	C79.284012,42.405849 79.093521,42.673557 78.993965,43.005974 
	C78.993965,43.005974 78.987961,43.012566 78.645454,43.045231 
	C77.546913,44.051823 76.790878,45.025745 76.034843,45.999668 
	C74.545090,47.576206 73.055344,49.152740 70.906937,50.832813 
	C63.819313,46.863327 57.399406,46.359924 50.824554,50.743805 
	C50.104393,50.339848 49.552197,50.177307 48.784912,49.907242 
	C48.300114,49.605442 48.112453,49.350704 47.903687,48.805099 
	C47.531796,48.381538 47.263062,48.188393 46.997162,47.997616 
	C47.000000,47.999981 47.004738,48.005642 46.899548,47.781364 
	C46.593822,47.276775 46.327637,47.090019 45.997902,46.998413 
	C46.000000,47.000000 46.003201,47.004200 45.900375,46.779099 
	C45.597935,46.272423 45.331314,46.087383 44.998840,45.999443 
	C45.000000,46.000000 45.001118,46.002316 44.899017,45.777435 
	C44.597672,45.271420 44.331417,45.087040 43.999077,44.999710 
	C44.000000,45.000000 44.000584,45.001850 43.899033,44.777168 
	C43.598827,44.271423 43.332928,44.087635 42.999893,44.000565 
	C43.000000,44.000000 42.998867,44.000229 42.898060,43.775841 
	C42.599148,43.270794 42.333725,43.087715 42.000496,43.001106 
	C42.000000,43.000000 41.997784,42.999023 41.897289,42.774902 
	C41.598953,42.270535 41.333870,42.087830 41.000771,42.001335 
	C41.000000,42.000000 40.997364,41.998989 40.961510,41.677658 
	C40.285473,40.906418 39.645287,40.456509 39.005104,40.004784 
	C39.005100,40.002972 39.015266,40.012672 38.897499,39.740387 
	C38.182854,38.974407 37.585972,38.480713 36.994896,37.993263 
	C37.000706,37.999504 37.014183,38.009968 36.838497,37.749352 
	C36.068996,37.320843 35.475182,37.152954 34.603596,36.833672 
	C32.903038,35.171814 31.480253,33.661343 30.057467,32.150875 
	C29.073238,29.981165 28.089012,27.811455 26.759785,24.881197 
	C27.839710,23.940531 29.472582,22.518225 31.151180,21.056086 
	C34.437714,24.974802 37.362080,28.461685 40.636395,32.338615 
	C42.325584,34.484406 43.664822,36.240150 45.016594,38.295570 
	C45.354481,39.061249 45.679840,39.527245 46.058090,40.136612 
	C46.198799,40.330647 46.286625,40.381302 46.374447,40.431961 
	C46.247265,40.289848 46.120083,40.147736 45.981018,39.705574 
	C45.644886,38.937843 45.320633,38.470161 44.962601,37.660797 
	C43.624298,35.542294 42.319767,33.765472 41.015240,31.988653 
	C38.105751,27.197256 35.196262,22.405859 32.141411,17.308069 
	C33.851788,15.576066 35.707527,14.150455 38.084915,12.324107 
	C41.743210,19.846836 45.089180,26.727322 48.724991,34.051964 
	C49.138710,34.773041 49.262589,35.049969 49.386467,35.326893 
	C49.510559,35.236465 49.748020,35.074806 49.742409,35.065876 
	C49.512173,34.699459 49.260086,34.346775 49.010757,33.992355 
M76.456909,37.243999 
	C76.079727,37.881351 75.702538,38.518703 75.325356,39.156055 
	C76.126984,39.089828 76.524872,38.788738 76.718269,38.388763 
	C76.917366,37.976994 76.917084,37.468819 77.427338,36.763855 
	C77.412300,36.405380 77.397263,36.046909 77.382225,35.688435 
	C77.253387,36.124187 77.124557,36.559944 76.456909,37.243999 
M80.224823,32.370510 
	C79.833824,32.918037 79.442825,33.465565 79.051834,34.013092 
	C79.299576,34.160923 79.547325,34.308758 79.795067,34.456589 
	C80.075912,33.887280 80.356758,33.317970 80.224823,32.370510 
M68.705551,41.563984 
	C68.989204,41.293339 69.272850,41.022697 69.556503,40.752052 
	C69.444298,40.634647 69.240707,40.409008 69.233070,40.415455 
	C68.933907,40.668053 68.652588,40.941784 68.705551,41.563984 
z"/>
<path fill="#D9BF83" opacity="1.000000" stroke="none" 
	d="
M50.992523,50.985222 
	C57.399406,46.359924 63.819313,46.863327 70.611725,50.972664 
	C72.027611,53.612881 73.080048,56.216782 74.290176,59.210857 
	C74.272797,59.234295 73.093918,60.091164 73.134621,60.885529 
	C73.453438,67.106476 69.117104,70.318184 64.899033,73.317413 
	C63.695801,74.172958 61.213909,73.230217 59.003063,73.124458 
	C56.012711,71.827415 53.337662,70.518005 50.157303,69.058426 
	C49.652000,68.908241 49.273075,68.884277 49.273075,68.884277 
	C48.772156,66.858719 48.271236,64.833168 47.836208,62.134689 
	C47.949524,58.637497 47.996948,55.813229 48.040192,52.747929 
	C48.036007,52.506901 48.059032,52.025166 48.294022,52.041451 
	C48.529015,52.057735 49.000095,52.052631 49.300865,52.027672 
	C50.065262,51.663544 50.528893,51.324383 50.992523,50.985222 
z"/>
<path fill="#D9BF83" opacity="1.000000" stroke="none" 
	d="
M89.667572,82.933968 
	C88.920761,83.020844 88.185814,82.800705 87.450874,82.580574 
	C87.590271,82.188637 87.729660,81.796700 87.869057,81.404770 
	C88.472511,81.812164 89.075974,82.219559 89.667572,82.933968 
z"/>
<path fill="#D9BF83" opacity="1.000000" stroke="none" 
	d="
M81.348198,86.063293 
	C82.087631,85.978302 82.816757,86.199394 83.545891,86.420486 
	C83.408310,86.813812 83.270729,87.207130 83.133156,87.600456 
	C82.534737,87.190102 81.936317,86.779739 81.348198,86.063293 
z"/>
<path fill="#EED5A6" opacity="1.000000" stroke="none" 
	d="
M76.370018,45.963783 
	C76.790878,45.025745 77.546913,44.051823 78.640610,43.050095 
	C78.220573,43.990833 77.462883,44.959366 76.370018,45.963783 
z"/>
<path fill="#D9BF83" opacity="1.000000" stroke="none" 
	d="
M83.996162,79.005516 
	C83.351891,78.552612 82.707626,78.099709 82.031677,77.323402 
	C82.000000,77.000000 82.000404,76.999390 82.000404,76.999390 
	C82.591751,77.485336 83.183105,77.971283 83.887283,78.728561 
	C84.000107,78.999878 83.996162,79.005516 83.996162,79.005516 
z"/>
<path fill="#D9BF83" opacity="1.000000" stroke="none" 
	d="
M72.003357,81.997726 
	C71.757515,81.644951 71.508018,81.294716 71.258530,80.944481 
	C71.384079,80.858253 71.509628,80.772026 71.635178,80.685799 
	C71.751595,80.964745 71.868011,81.243690 71.988312,81.765274 
	C71.992203,82.007904 71.999710,82.000275 72.003357,81.997726 
z"/>
<path fill="#D9BF83" opacity="1.000000" stroke="none" 
	d="
M84.003052,78.996956 
	C84.441818,79.122887 84.877632,79.251732 85.313446,79.380585 
	C84.954964,79.396248 84.596489,79.411903 84.117081,79.216537 
	C83.996162,79.005516 84.000107,78.999878 84.003052,78.996956 
z"/>
<path fill="#D9BF83" opacity="1.000000" stroke="none" 
	d="
M78.004272,80.995728 
	C77.568245,80.877670 77.132217,80.759613 76.696190,80.641563 
	C77.049660,80.622490 77.403122,80.603416 77.878311,80.792160 
	C78.000038,80.999969 78.004272,80.995728 78.004272,80.995728 
z"/>
<path fill="#D9BF83" opacity="1.000000" stroke="none" 
	d="
M81.999680,77.000305 
	C81.442703,76.832748 80.886055,76.664886 80.164703,76.248512 
	C80.000000,76.000000 79.996262,76.004745 79.996262,76.004745 
	C80.554199,76.170700 81.112137,76.336655 81.835236,76.750999 
	C82.000404,76.999390 82.000000,77.000000 81.999680,77.000305 
z"/>
<path fill="#D9BF83" opacity="1.000000" stroke="none" 
	d="
M81.295181,40.994610 
	C81.483490,40.675934 81.983879,40.340664 82.804550,39.995201 
	C82.618973,40.316010 82.113121,40.647011 81.295181,40.994610 
z"/>
<path fill="#D9BF83" opacity="1.000000" stroke="none" 
	d="
M77.998108,81.001312 
	C78.252945,81.355736 78.509712,81.708824 78.766472,82.061913 
	C78.638985,82.149239 78.511497,82.236565 78.384003,82.323883 
	C78.260384,82.044525 78.136772,81.765167 78.008713,81.240768 
	C78.004272,80.995728 78.000038,80.999969 77.998108,81.001312 
z"/>
<path fill="#D9BF83" opacity="1.000000" stroke="none" 
	d="
M80.215645,41.910988 
	C80.176598,41.745850 80.369034,41.475971 80.788162,41.095482 
	C80.825615,41.258663 80.636368,41.532455 80.215645,41.910988 
z"/>
<path fill="#D9BF83" opacity="1.000000" stroke="none" 
	d="
M79.222519,42.901192 
	C79.093521,42.673557 79.284012,42.405849 79.790573,42.093460 
	C79.827484,42.254841 79.639275,42.525627 79.222519,42.901192 
z"/>
<path fill="#D9BF83" opacity="1.000000" stroke="none" 
	d="
M80.002258,75.998230 
	C79.881058,75.851471 79.757591,75.706467 79.634125,75.561470 
	C79.722855,75.612511 79.811592,75.663551 79.948288,75.859665 
	C79.996262,76.004745 80.000000,76.000000 80.002258,75.998230 
z"/>
<path fill="#D9BF83" opacity="1.000000" stroke="none" 
	d="
M78.443779,69.536255 
	C78.404198,69.475204 78.483360,69.597298 78.443779,69.536255 
z"/>
<path fill="#D9BF83" opacity="1.000000" stroke="none" 
	d="
M80.560944,70.463470 
	C80.601730,70.525032 80.520149,70.401909 80.560944,70.463470 
z"/>
<path fill="#324D76" opacity="1.000000" stroke="none" 
	d="
M98.558014,82.063202 
	C101.227486,82.665901 103.590012,83.515800 106.579666,84.591309 
	C105.027290,87.119118 103.872169,89.000046 102.345642,91.485779 
	C100.054726,89.824928 98.020729,88.350334 95.677849,86.651810 
	C96.638718,85.030678 97.444893,83.670547 98.558014,82.063202 
z"/>
<path fill="#EED5A6" opacity="1.000000" stroke="none" 
	d="
M61.771645,23.134871 
	C61.888409,23.346388 61.710850,23.591896 61.248833,23.883335 
	C61.115883,23.666500 61.286865,23.413033 61.771645,23.134871 
z"/>
<path fill="#EED5A7" opacity="1.000000" stroke="none" 
	d="
M49.000095,52.052631 
	C49.000095,52.052631 48.529015,52.057735 48.030991,52.029800 
	C47.358013,51.997242 47.183052,51.992611 46.837780,51.747139 
	C46.116405,51.331318 45.565338,51.156345 44.954346,50.847717 
	C44.807674,50.667366 44.720928,50.620670 44.634186,50.573975 
	C44.749931,50.720776 44.865673,50.867573 45.154213,51.254616 
	C45.880230,51.667603 46.433456,51.840340 47.104752,52.232082 
	C47.435368,52.723988 47.709221,52.903278 48.044373,52.988956 
	C47.996948,55.813229 47.949524,58.637497 47.905540,61.793304 
	C47.482105,61.959599 47.055229,61.794353 45.961624,61.369934 
	C43.208740,61.098179 41.122585,61.085606 39.036427,61.073029 
	C38.037716,61.048981 36.930992,61.291351 36.064888,60.940220 
	C34.666363,60.373234 33.426216,59.415588 32.119179,58.622932 
	C33.674641,58.123753 35.222874,57.248875 36.787350,57.218807 
	C38.823170,57.179684 40.871887,57.811401 43.045872,57.381775 
	C36.790001,56.151226 30.534130,54.920681 24.249447,53.684464 
	C24.208174,48.944405 26.350409,48.703781 29.672213,49.986649 
	C32.021965,50.894115 34.509300,51.445343 37.240242,51.190189 
	C33.136555,49.500496 29.045321,47.779713 24.925940,46.129177 
	C20.051386,44.176056 19.954477,43.754604 23.878876,38.993790 
	C28.487284,41.628273 33.165951,44.302925 37.844620,46.977573 
	C38.035511,46.683956 38.226398,46.390339 38.417290,46.096722 
	C33.110668,42.471031 27.804049,38.845341 22.335827,35.109238 
	C23.927397,31.751547 25.114195,28.426285 29.745283,31.979143 
	C31.480253,33.661343 32.903038,35.171814 34.800926,37.076683 
	C35.855415,37.650715 36.434799,37.830341 37.014183,38.009968 
	C37.014183,38.009968 37.000706,37.999504 37.032372,38.318531 
	C37.714443,39.095928 38.364857,39.554302 39.015266,40.012672 
	C39.015266,40.012672 39.005100,40.002972 39.040245,40.325687 
	C39.716049,41.098598 40.356705,41.548794 40.997364,41.998989 
	C40.997364,41.998989 41.000000,42.000000 41.103104,42.223953 
	C41.404488,42.725788 41.668346,42.909496 41.997784,42.999023 
	C41.997784,42.999023 42.000000,43.000000 42.103287,43.223839 
	C42.405361,43.725491 42.669460,43.909672 42.998867,44.000229 
	C42.998867,44.000229 43.000000,44.000000 43.103630,44.223400 
	C43.406883,44.724442 43.671326,44.909458 44.000584,45.001850 
	C44.000584,45.001850 44.000000,45.000000 44.103718,45.222569 
	C44.407089,45.723309 44.671650,45.909035 45.001118,46.002316 
	C45.001118,46.002316 45.000000,46.000000 45.104065,46.222572 
	C45.408489,46.723450 45.673512,46.909798 46.003201,47.004200 
	C46.003201,47.004200 46.000000,47.000000 46.105492,47.220741 
	C46.412209,47.718670 46.676796,47.906723 47.004738,48.005642 
	C47.004738,48.005642 47.000000,47.999981 47.106445,48.222622 
	C47.477539,48.642014 47.742188,48.838764 48.006840,49.035515 
	C48.112453,49.350704 48.300114,49.605442 48.784912,50.246353 
	C49.000031,51.146198 49.000065,51.599415 49.000095,52.052631 
z"/>
<path fill="#304B76" opacity="1.000000" stroke="none" 
	d="
M45.992065,86.015343 
	C46.430401,84.460922 46.877190,82.890480 47.323982,81.320038 
	C47.894867,81.555794 48.465755,81.791557 49.036640,82.027313 
	C48.244377,83.319756 47.452114,84.612198 46.314518,85.961060 
	C45.969185,86.017471 46.000519,85.999321 45.992065,86.015343 
z"/>
<path fill="#304B76" opacity="1.000000" stroke="none" 
	d="
M45.565231,77.403519 
	C46.114761,76.111870 46.878582,75.039749 47.642403,73.967621 
	C48.050755,74.338600 48.459103,74.709587 48.867455,75.080566 
	C47.838146,75.928055 46.808838,76.775543 45.565231,77.403519 
z"/>
<path fill="#304B76" opacity="1.000000" stroke="none" 
	d="
M39.505577,77.762329 
	C38.432331,78.274307 37.542622,78.519859 36.652912,78.765411 
	C37.519413,77.723885 38.081272,74.989517 39.505577,77.762329 
z"/>
<path fill="#304B76" opacity="1.000000" stroke="none" 
	d="
M41.674774,81.899635 
	C42.073982,80.830132 42.420177,80.058609 42.766373,79.287086 
	C43.178230,79.640930 43.590088,79.994774 44.001945,80.348618 
	C43.208553,80.964951 42.415157,81.581284 41.674774,81.899635 
z"/>
<path fill="#C9B381" opacity="1.000000" stroke="none" 
	d="
M36.593208,87.533600 
	C37.259663,86.159843 38.140129,85.053413 39.020596,83.946991 
	C39.375141,84.218842 39.729687,84.490692 40.084236,84.762550 
	C39.335213,85.805061 38.586189,86.847572 37.567692,88.084244 
	C37.134548,88.119240 36.970882,87.960091 36.593208,87.533600 
z"/>
<path fill="#C1AD81" opacity="1.000000" stroke="none" 
	d="
M39.020901,61.264633 
	C41.122585,61.085606 43.208740,61.098179 45.630272,61.276848 
	C43.927677,61.618660 41.889709,61.794384 39.413368,61.904800 
	C38.974998,61.839493 39.005375,61.456234 39.020901,61.264633 
z"/>
<path fill="#304B76" opacity="1.000000" stroke="none" 
	d="
M35.613770,73.070389 
	C34.807404,73.593414 34.065887,73.864540 33.324375,74.135666 
	C33.227959,73.814362 33.131546,73.493057 33.035130,73.171753 
	C33.916294,73.054008 34.797459,72.936256 35.613770,73.070389 
z"/>
<path fill="#304B76" opacity="1.000000" stroke="none" 
	d="
M50.295311,76.671516 
	C50.479900,77.454117 50.479900,78.443649 50.479900,79.433174 
	C50.096863,79.353760 49.713825,79.274345 49.330788,79.194931 
	C49.590767,78.422768 49.850742,77.650604 50.295311,76.671516 
z"/>
<path fill="#2E4A76" opacity="1.000000" stroke="none" 
	d="
M51.217041,89.655991 
	C50.881306,89.878433 50.702465,89.877182 50.264954,89.947060 
	C50.601398,89.141098 51.196514,88.263992 51.791630,87.386894 
	C52.074139,87.600967 52.356647,87.815033 52.639156,88.029099 
	C52.217415,88.496826 51.795670,88.964561 51.217041,89.655991 
z"/>
<path fill="#304B76" opacity="1.000000" stroke="none" 
	d="
M48.965843,68.937927 
	C49.273075,68.884277 49.652000,68.908241 49.814873,69.005844 
	C49.243519,69.590904 48.509293,70.078362 47.775063,70.565819 
	C48.069580,70.041069 48.364094,69.516319 48.965843,68.937927 
z"/>
<path fill="#2F4B75" opacity="1.000000" stroke="none" 
	d="
M33.263332,68.012329 
	C32.778343,67.823486 32.490570,67.441277 32.202797,67.059059 
	C32.574097,66.881401 32.945396,66.703743 33.316692,66.526085 
	C33.364643,66.957047 33.412594,67.388000 33.263332,68.012329 
z"/>
<path fill="#2E4A76" opacity="1.000000" stroke="none" 
	d="
M55.252106,76.449188 
	C55.076878,76.806099 54.750648,77.014107 54.424416,77.222115 
	C54.649979,76.914833 54.875542,76.607559 55.252106,76.449188 
z"/>
<path fill="#304B76" opacity="1.000000" stroke="none" 
	d="
M44.156174,72.866974 
	C44.044182,73.182259 43.779728,73.347588 43.515274,73.512909 
	C43.678085,73.247612 43.840900,72.982323 44.156174,72.866974 
z"/>
<path fill="#304B76" opacity="1.000000" stroke="none" 
	d="
M37.639244,72.103516 
	C37.364098,71.833031 37.250862,71.431335 37.194279,71.021812 
	C37.184559,70.951469 37.416100,70.847794 37.536194,70.759506 
	C37.630894,71.162888 37.725597,71.566277 37.639244,72.103516 
z"/>
<path fill="#304B76" opacity="1.000000" stroke="none" 
	d="
M44.300041,68.136032 
	C44.607594,67.946030 44.946556,67.971436 45.285519,67.996841 
	C45.213730,68.233170 45.141945,68.469490 45.070156,68.705818 
	C44.823925,68.587685 44.577690,68.469559 44.300041,68.136032 
z"/>
<path fill="#2F4B75" opacity="1.000000" stroke="none" 
	d="
M28.933762,68.954376 
	C28.918787,69.218353 28.445747,69.101295 28.223141,69.002014 
	C28.146536,68.547249 28.292538,68.191765 28.438541,67.836273 
	C28.608606,68.120979 28.778671,68.405685 28.933762,68.954376 
z"/>
<path fill="#2F4B75" opacity="1.000000" stroke="none" 
	d="
M37.600555,66.275490 
	C37.441074,66.149254 37.418076,65.931297 37.395081,65.713348 
	C37.509071,65.870155 37.623058,66.026970 37.600555,66.275490 
z"/>
<path fill="#2F4B75" opacity="1.000000" stroke="none" 
	d="
M46.467537,64.448624 
	C46.523083,64.415276 46.411987,64.481979 46.467537,64.448624 
z"/>
<path fill="#304B76" opacity="1.000000" stroke="none" 
	d="
M52.918030,73.943123 
	C53.054928,73.935936 53.191826,73.928749 53.159935,73.962662 
	C52.991150,74.003761 52.918030,73.943123 52.918030,73.943123 
z"/>
<path fill="#304B76" opacity="1.000000" stroke="none" 
	d="
M53.022163,74.039734 
	C52.921635,74.081818 52.790096,74.087921 52.788292,74.018578 
	C52.918030,73.943123 52.991150,74.003761 53.022163,74.039734 
z"/>
<path fill="#D6BD83" opacity="1.000000" stroke="none" 
	d="
M41.006767,31.995155 
	C42.319767,33.765472 43.624298,35.542294 44.964436,37.659538 
	C45.000046,37.999958 45.004059,37.995895 45.004059,37.995895 
	C43.664822,36.240150 42.325584,34.484406 40.984219,32.373108 
	C40.982094,32.017555 40.998291,32.001659 41.006767,31.995155 
z"/>
<path fill="#D9BF83" opacity="1.000000" stroke="none" 
	d="
M80.431213,32.559586 
	C80.356758,33.317970 80.075912,33.887280 79.795067,34.456589 
	C79.547325,34.308758 79.299576,34.160923 79.051834,34.013092 
	C79.442825,33.465565 79.833824,32.918037 80.431213,32.559586 
z"/>
<path fill="#EED5A6" opacity="1.000000" stroke="none" 
	d="
M68.537247,41.388367 
	C68.652588,40.941784 68.933907,40.668053 69.233070,40.415455 
	C69.240707,40.409008 69.444298,40.634647 69.556503,40.752052 
	C69.272850,41.022697 68.989204,41.293339 68.537247,41.388367 
z"/>
<path fill="#D9BF83" opacity="1.000000" stroke="none" 
	d="
M77.004044,37.002827 
	C76.917084,37.468819 76.917366,37.976994 76.718269,38.388763 
	C76.524872,38.788738 76.126984,39.089828 75.325356,39.156055 
	C75.702538,38.518703 76.079727,37.881351 76.728439,37.121979 
	C76.999977,36.999962 77.004036,37.002827 77.004044,37.002827 
z"/>
<path fill="#E2C992" opacity="1.000000" stroke="none" 
	d="
M40.961510,41.677658 
	C40.356705,41.548794 39.716049,41.098598 39.040245,40.327499 
	C39.645287,40.456509 40.285473,40.906418 40.961510,41.677658 
z"/>
<path fill="#EED5A7" opacity="1.000000" stroke="none" 
	d="
M49.300865,52.027672 
	C49.000065,51.599415 49.000031,51.146198 49.000000,50.353874 
	C49.552197,50.177307 50.104393,50.339848 50.824554,50.743805 
	C50.528893,51.324383 50.065262,51.663544 49.300865,52.027672 
z"/>
<path fill="#D6BD83" opacity="1.000000" stroke="none" 
	d="
M38.897499,39.740387 
	C38.364857,39.554302 37.714443,39.095928 37.026562,38.312286 
	C37.585972,38.480713 38.182854,38.974407 38.897499,39.740387 
z"/>
<path fill="#D6BD83" opacity="1.000000" stroke="none" 
	d="
M46.005199,39.993240 
	C45.679840,39.527245 45.354481,39.061249 45.016594,38.295570 
	C45.004059,37.995895 45.000046,37.999958 44.998215,38.001221 
	C45.320633,38.470161 45.644886,38.937843 45.984543,39.702782 
	C45.999950,40.000038 46.005199,39.993240 46.005199,39.993240 
z"/>
<path fill="#D9BF83" opacity="1.000000" stroke="none" 
	d="
M76.997849,36.997829 
	C77.124557,36.559944 77.253387,36.124187 77.382225,35.688435 
	C77.397263,36.046909 77.412300,36.405380 77.215683,36.883339 
	C77.004036,37.002827 76.999977,36.999962 76.997849,36.997829 
z"/>
<path fill="#D5BC85" opacity="1.000000" stroke="none" 
	d="
M49.005165,33.996391 
	C49.260086,34.346775 49.512173,34.699459 49.742409,35.065876 
	C49.748020,35.074806 49.510559,35.236465 49.386467,35.326893 
	C49.262589,35.049969 49.138710,34.773041 49.001976,34.253555 
	C48.989128,34.010998 48.999569,34.000431 49.005165,33.996391 
z"/>
<path fill="#D6BD83" opacity="1.000000" stroke="none" 
	d="
M36.838497,37.749352 
	C36.434799,37.830341 35.855415,37.650715 35.078697,37.228073 
	C35.475182,37.152954 36.068996,37.320843 36.838497,37.749352 
z"/>
<path fill="#E2C992" opacity="1.000000" stroke="none" 
	d="
M46.899548,47.781364 
	C46.676796,47.906723 46.412209,47.718670 46.103394,47.219154 
	C46.327637,47.090019 46.593822,47.276775 46.899548,47.781364 
z"/>
<path fill="#D6BD83" opacity="1.000000" stroke="none" 
	d="
M45.996426,40.002831 
	C46.120083,40.147736 46.247265,40.289848 46.374447,40.431961 
	C46.286625,40.381302 46.198799,40.330647 46.058090,40.136612 
	C46.005199,39.993240 45.999950,40.000038 45.996426,40.002831 
z"/>
<path fill="#E2C992" opacity="1.000000" stroke="none" 
	d="
M41.897289,42.774902 
	C41.668346,42.909496 41.404488,42.725788 41.103874,42.225285 
	C41.333870,42.087830 41.598953,42.270535 41.897289,42.774902 
z"/>
<path fill="#E2C992" opacity="1.000000" stroke="none" 
	d="
M42.898060,43.775841 
	C42.669460,43.909672 42.405361,43.725491 42.103783,43.224945 
	C42.333725,43.087715 42.599148,43.270794 42.898060,43.775841 
z"/>
<path fill="#E2C992" opacity="1.000000" stroke="none" 
	d="
M43.899033,44.777168 
	C43.671326,44.909458 43.406883,44.724442 43.103523,44.223965 
	C43.332928,44.087635 43.598827,44.271423 43.899033,44.777168 
z"/>
<path fill="#E2C992" opacity="1.000000" stroke="none" 
	d="
M44.899017,45.777435 
	C44.671650,45.909035 44.407089,45.723309 44.102791,45.222275 
	C44.331417,45.087040 44.597672,45.271420 44.899017,45.777435 
z"/>
<path fill="#E2C992" opacity="1.000000" stroke="none" 
	d="
M45.900375,46.779099 
	C45.673512,46.909798 45.408489,46.723450 45.102905,46.222015 
	C45.331314,46.087383 45.597935,46.272423 45.900375,46.779099 
z"/>
<path fill="#E2C992" opacity="1.000000" stroke="none" 
	d="
M47.903687,48.805099 
	C47.742188,48.838764 47.477539,48.642014 47.103607,48.220257 
	C47.263062,48.188393 47.531796,48.381538 47.903687,48.805099 
z"/>
<path fill="#EED5A7" opacity="1.000000" stroke="none" 
	d="
M47.008087,51.987984 
	C47.183052,51.992611 47.358013,51.997242 47.796001,52.013519 
	C48.059032,52.025166 48.036007,52.506901 48.040192,52.747929 
	C47.709221,52.903278 47.435368,52.723988 47.110947,52.226025 
	C46.999077,52.000965 47.008087,51.987984 47.008087,51.987984 
z"/>
<path fill="#EED5A7" opacity="1.000000" stroke="none" 
	d="
M46.992882,52.007023 
	C46.433456,51.840340 45.880230,51.667603 45.163395,51.247337 
	C44.999786,50.999813 45.014271,50.981377 45.014271,50.981377 
	C45.565338,51.156345 46.116405,51.331318 46.837780,51.747139 
	C47.008087,51.987984 46.999077,52.000965 46.992882,52.007023 
z"/>
<path fill="#EED5A7" opacity="1.000000" stroke="none" 
	d="
M44.990601,51.007095 
	C44.865673,50.867573 44.749931,50.720776 44.634186,50.573975 
	C44.720928,50.620670 44.807674,50.667366 44.954346,50.847717 
	C45.014271,50.981377 44.999786,50.999813 44.990601,51.007095 
z"/>
</svg>