<?xml version="1.0" encoding="UTF-8"?>
<svg id="v2" xmlns="http://www.w3.org/2000/svg" viewBox="0 0 2592 2592">
  <defs>
    <style>
      .cls-1 {
        fill: #efd6a8;
      }

      .cls-2 {
        fill: #274675;
      }

      .cls-3 {
        fill: none;
      }

      .cls-4 {
        fill: #e0c481;
      }
    </style>
  </defs>
  <g id="colour_3" data-name="colour 3">
    <circle class="cls-2" cx="1344.21" cy="1296.12" r="268.42"/>
  </g>
  <g id="colour_2-2" data-name="colour 2">
    <g>
      <path class="cls-3" d="M1499.81,1530.85c2.71,4.31,2.04,7.22-2.27,9.92-4.32,2.71-7.22,2.04-9.93-2.27-2.7-4.32-2.04-7.23,2.28-9.93,4.31-2.7,7.22-2.04,9.92,2.28Z"/>
      <path class="cls-1" d="M1553.42,1270.13c1.42,11.37,1.9,22.66,1.46,34.11l-148.98-4.5c.07-1.2.11-2.4.11-3.62,0-3.01-.21-5.96-.63-8.85l148.04-17.14Z"/>
      <path class="cls-1" d="M1538.02,1264.21l-132.64,23.06c-.6-4.19-1.62-8.24-3.02-12.11l127.89-42.04c3.45,10.18,6.02,20.48,7.77,31.09Z"/>
      <path class="cls-1" d="M1405.9,1299.74l119.79,10.46c-.78,10.02-2.36,19.81-4.77,29.57l-117-27.7c1.07-3.97,1.74-8.09,1.98-12.33Z"/>
      <path class="cls-1" d="M1399.5,1323.74l118.68,63.57c-4.99,9.53-10.67,18.49-17.14,27.08l-108.22-80.1c2.56-3.27,4.81-6.8,6.68-10.55Z"/>
      <path class="cls-1" d="M1514.25,1231.18l-111.89,43.98c-1.42-3.95-3.24-7.72-5.41-11.25l104.35-59.74c5.08,8.67,9.36,17.62,12.95,27.01Z"/>
      <path class="cls-1" d="M1403.92,1312.07l101.43,30.2c-2.57,8.99-5.84,17.61-9.87,26.05l-95.98-44.58c1.86-3.69,3.35-7.6,4.42-11.67Z"/>
      <path class="cls-1" d="M1497.73,1198.33l-100.78,65.58c-2.18-3.58-4.72-6.91-7.55-9.95l90.21-79.48c6.72,7.48,12.72,15.37,18.12,23.85Z"/>
      <path class="cls-1" d="M1496.31,1420.41h-.01c-6.8,8.33-14.16,15.97-22.23,23.08l-89.91-100.21h0c3.18-2.7,6.08-5.71,8.67-8.99l103.49,86.12Z"/>
      <path class="cls-1" d="M1384.16,1343.28l102.05,127.66c-9.44,7.66-19.33,14.46-29.87,20.51l-82.47-141.1c3.67-2.01,7.11-4.39,10.28-7.08h0Z"/>
      <path class="cls-1" d="M1485.19,1159.35l-95.79,94.61c-2.85-3.05-5.99-5.8-9.4-8.22l81.08-107.49c8.64,6.4,16.62,13.39,24.11,21.1Z"/>
      <path class="cls-1" d="M1462.83,1121.84l-82.83,123.9c-3.37-2.41-7.01-4.48-10.84-6.17l63.99-134.59c10.39,4.83,20.22,10.42,29.68,16.86Z"/>
      <path class="cls-1" d="M1373.87,1350.35l80.86,158.39c-11.41,5.93-23.1,10.86-35.31,14.89l-57.06-168.42c4.03-1.23,7.88-2.87,11.51-4.86Z"/>
      <path class="cls-1" d="M1419.96,1114.89l-50.8,124.68h-.01c-3.77-1.68-7.75-2.98-11.87-3.86l32.2-130.72c10.46,2.48,20.56,5.76,30.48,9.9Z"/>
      <path class="cls-1" d="M1362.36,1355.21l51.22,185.28c-13.04,3.7-26.17,6.32-39.63,7.91l-23.83-190.76c4.22-.4,8.31-1.22,12.24-2.43Z"/>
      <path class="cls-1" d="M1379.35,1117.53l-22.07,118.18c-4.21-.91-8.59-1.39-13.07-1.39l3.42-120.19c10.71.21,21.21,1.33,31.72,3.4Z"/>
      <path class="cls-1" d="M1350.12,1357.64l4.22,62.49c-7.23.59-14.37.55-21.59-.11l4.89-62.45c2.16.23,4.35.35,6.57.35,1.99,0,3.96-.09,5.91-.28Z"/>
      <path class="cls-1" d="M1339.56,1070.95l4.65,163.37c-4.25,0-8.41.43-12.42,1.25l-28.27-160.96c11.95-2.2,23.89-3.41,36.04-3.66Z"/>
      <path class="cls-1" d="M1291.11,1062.46l40.68,173.11c-4.13.84-8.12,2.1-11.91,3.73l-65.34-165.39c11.92-4.81,24.03-8.6,36.57-11.45Z"/>
      <path class="cls-1" d="M1239.19,1064.83l80.69,174.47c-3.86,1.65-7.51,3.68-10.92,6.06l-105.12-160.95c11.3-7.49,23.01-13.98,35.35-19.58Z"/>
      <path class="cls-1" d="M1203.4,1102.24l105.56,143.12c-3.43,2.38-6.6,5.1-9.49,8.11l-125.18-126.3c9.07-9.12,18.71-17.38,29.11-24.93Z"/>
      <polygon class="cls-4" points="1299.47 1253.47 1299.48 1253.48 1299.47 1253.48 1299.47 1253.47"/>
      <path class="cls-1" d="M1299.47,1253.47h0c-2.87,3.02-5.44,6.33-7.65,9.87l-136.03-90.6c6.66-10.17,14.02-19.64,22.22-28.61h.01s121.45,109.34,121.45,109.34Z"/>
      <path class="cls-1" d="M1163.28,1187.91l128.54,75.43c-2.21,3.51-4.07,7.26-5.53,11.2l-138.1-56.01c4.21-10.65,9.21-20.79,15.09-30.62Z"/>
      <path class="cls-1" d="M1172.49,1235.77l113.8,38.77c-1.44,3.86-2.51,7.9-3.15,12.08l-118.23-21.87c1.74-9.9,4.24-19.5,7.58-28.98Z"/>
      <path class="cls-1" d="M1206.72,1276.94l76.42,9.68c-.48,3.09-.73,6.27-.73,9.5,0,.99.02,1.98.07,2.96l-77.02,1.5c-.25-7.95.16-15.77,1.26-23.64Z"/>
    </g>
    <circle class="cls-3" cx="1346.44" cy="1298.29" r="290.89"/>
  </g>
  <g id="colour_1" data-name="colour 1">
    <g>
      <path class="cls-4" d="M1632.87,1289.77c.11,5.09-1.95,7.25-7.04,7.36s-7.25-1.95-7.36-7.04,1.95-7.24,7.04-7.36c5.09-.11,7.24,1.95,7.36,7.04Z"/>
      <path class="cls-4" d="M1625.62,1306.97c5.08.32,7.05,2.56,6.72,7.64-.32,5.08-2.56,7.05-7.64,6.73-5.08-.33-7.05-2.57-6.73-7.65.33-5.08,2.57-7.05,7.65-6.72Z"/>
      <path class="cls-4" d="M1631.25,1264.98c.55,5.06-1.32,7.39-6.38,7.94-5.06.54-7.39-1.32-7.94-6.39-.54-5.06,1.32-7.38,6.39-7.93,5.06-.55,7.38,1.32,7.93,6.38Z"/>
      <path class="cls-4" d="M1623.64,1331.12c5.04.76,6.81,3.16,6.05,8.2-.77,5.03-3.17,6.8-8.2,6.04-5.03-.76-6.8-3.16-6.04-8.2.76-5.03,3.16-6.8,8.19-6.04Z"/>
      <path class="cls-4" d="M1627.51,1240.42c.98,4.99-.68,7.47-5.67,8.45-5,.98-7.48-.68-8.46-5.67-.98-5,.68-7.48,5.68-8.46,4.99-.98,7.47.68,8.45,5.68Z"/>
      <path class="cls-4" d="M1619.6,1355.01c4.95,1.2,6.51,3.74,5.32,8.69-1.2,4.95-3.74,6.51-8.69,5.32-4.95-1.2-6.51-3.74-5.31-8.69,1.19-4.95,3.73-6.51,8.68-5.32Z"/>
      <path class="cls-4" d="M1621.67,1216.27c1.41,4.89-.03,7.5-4.93,8.91-4.89,1.41-7.5-.04-8.91-4.93-1.4-4.89.04-7.5,4.93-8.91s7.5.03,8.91,4.93Z"/>
      <path class="cls-4" d="M1613.52,1378.47c4.83,1.62,6.16,4.28,4.55,9.11-1.62,4.83-4.28,6.17-9.11,4.55-4.83-1.61-6.17-4.28-4.55-9.11,1.61-4.83,4.28-6.16,9.11-4.55Z"/>
      <path class="cls-4" d="M1613.78,1192.71c1.82,4.75.61,7.48-4.14,9.3-4.76,1.82-7.48.61-9.31-4.14-1.82-4.76-.61-7.48,4.15-9.3,4.75-1.83,7.48-.61,9.3,4.14Z"/>
      <path class="cls-4" d="M1569.27,1304.68l43.18,1.3c-.14,3.92-.37,7.83-.69,11.74l-71.73-6.27-14.34-1.25-119.79-10.46,148.98,4.5,14.39.44Z"/>
      <path class="cls-4" d="M1610.64,1263.51l-42.91,4.97-14.31,1.65-148.04,17.14,132.64-23.06,14.19-2.47,56.75-9.87c.65,3.87,1.21,7.75,1.68,11.64Z"/>
      <path class="cls-4" d="M1605.44,1401.32c4.67,2.02,5.77,4.8,3.75,9.47s-4.8,5.77-9.47,3.75-5.77-4.8-3.75-9.47c2.03-4.67,4.8-5.77,9.47-3.75Z"/>
      <path class="cls-4" d="M1534.93,1343.09l70.07,16.59c-.93,3.81-1.94,7.6-3.04,11.36l-82.81-24.66-13.8-4.11-101.43-30.2,117,27.7,14.01,3.32Z"/>
      <path class="cls-4" d="M1603.89,1169.92c2.23,4.58,1.25,7.39-3.33,9.62s-7.4,1.25-9.62-3.33c-2.23-4.58-1.25-7.4,3.33-9.62,4.58-2.23,7.4-1.25,9.62,3.33Z"/>
      <path class="cls-4" d="M1595.43,1423.39c4.48,2.42,5.34,5.27,2.92,9.76-2.42,4.48-5.27,5.33-9.75,2.92-4.49-2.42-5.34-5.28-2.93-9.76,2.42-4.48,5.28-5.34,9.76-2.92Z"/>
      <path class="cls-4" d="M1598.65,1210.63l-54.72,17.99-13.68,4.5-127.89,42.04,111.89-43.98,13.4-5.27,67.01-26.34c1.42,3.66,2.74,7.34,3.99,11.06Z"/>
      <path class="cls-4" d="M1592.08,1148.06c2.61,4.37,1.88,7.26-2.49,9.87s-7.26,1.88-9.87-2.49-1.89-7.26,2.49-9.87c4.37-2.61,7.26-1.88,9.87,2.49Z"/>
      <path class="cls-4" d="M1495.48,1368.32l13.06,6.07,78.37,36.4c-1.68,3.55-3.43,7.05-5.26,10.52l-12.69-6.8-38.09-20.4-12.69-6.8-118.68-63.57,95.98,44.58Z"/>
      <path class="cls-4" d="M1583.56,1444.52c4.25,2.79,4.86,5.71,2.07,9.97s-5.71,4.86-9.97,2.07-4.87-5.71-2.07-9.97c2.79-4.26,5.71-4.86,9.97-2.07Z"/>
      <path class="cls-4" d="M1568.96,1414.51l12.69,6.8c-6.65,12.61-14.18,24.51-22.74,35.91l-11.57-8.56c8.14-10.84,15.3-22.15,21.62-34.15Z"/>
      <path class="cls-4" d="M1578.43,1127.3c2.98,4.13,2.5,7.07-1.63,10.05-4.13,2.97-7.07,2.5-10.05-1.63s-2.5-7.08,1.63-10.05c4.13-2.98,7.07-2.5,10.05,1.63Z"/>
      <path class="cls-4" d="M1576.28,1161.24l-62.48,35.77-12.5,7.16-104.35,59.74,100.78-65.58,12.07-7.85,60.35-39.27c2.12,3.3,4.16,6.64,6.13,10.03Z"/>
      <path class="cls-4" d="M1569.91,1464.55c4,3.14,4.36,6.11,1.21,10.11s-6.11,4.35-10.11,1.2c-4-3.14-4.36-6.11-1.21-10.11s6.11-4.35,10.11-1.2Z"/>
      <path class="cls-4" d="M1567.73,1268.48c1.49,12.06,2,24.05,1.54,36.19h0s-14.39-.43-14.39-.43c.44-11.45-.04-22.74-1.46-34.11l14.31-1.65Z"/>
      <path class="cls-4" d="M1563.05,1107.78c3.32,3.86,3.1,6.84-.76,10.16s-6.83,3.1-10.15-.76c-3.33-3.86-3.1-6.84.76-10.16,3.85-3.32,6.83-3.09,10.15.76Z"/>
      <path class="cls-4" d="M1547.34,1448.66l11.57,8.56c-2.35,3.14-4.77,6.22-7.26,9.25l-44.27-36.85-11.07-9.21-103.49-86.12,108.22,80.1,11.57,8.56h0s34.73,25.71,34.73,25.71Z"/>
      <path class="cls-4" d="M1554.6,1483.33c3.71,3.48,3.81,6.46.33,10.17-3.48,3.72-6.46,3.82-10.18.34-3.71-3.48-3.81-6.46-.33-10.18s6.46-3.81,10.18-.33Z"/>
      <path class="cls-4" d="M1552.21,1261.74l-14.19,2.47c-1.75-10.61-4.32-20.91-7.77-31.09l13.68-4.5c3.67,10.85,6.41,21.82,8.28,33.12Z"/>
      <path class="cls-4" d="M1546.05,1089.67c3.64,3.56,3.67,6.54.11,10.18s-6.54,3.67-10.18.11c-3.64-3.55-3.67-6.54-.11-10.18,3.55-3.64,6.54-3.67,10.18-.11Z"/>
      <path class="cls-4" d="M1544.44,1117.36l-31,27.32-23.02,20.28-10.81,9.52-90.21,79.48,95.79-94.61,10.25-10.11,40.98-40.48c2.74,2.81,5.41,5.67,8.02,8.6Z"/>
      <path class="cls-4" d="M1525.69,1310.2l14.34,1.25c-.84,10.72-2.53,21.2-5.1,31.64l-14.01-3.32c2.41-9.76,3.99-19.55,4.77-29.57Z"/>
      <path class="cls-4" d="M1537.72,1500.72c3.41,3.79,3.25,6.77-.54,10.17s-6.76,3.24-10.17-.54c-3.4-3.79-3.24-6.77.55-10.17,3.78-3.41,6.76-3.25,10.16.54Z"/>
      <path class="cls-4" d="M1518.18,1387.31l12.69,6.8c-5.32,10.15-11.37,19.69-18.26,28.84l-11.57-8.56c6.47-8.59,12.15-17.55,17.14-27.08Z"/>
      <path class="cls-4" d="M1527.55,1073.08c3.93,3.23,4.22,6.2.99,10.13-3.23,3.94-6.2,4.23-10.13.99-3.94-3.23-4.23-6.2-.99-10.13,3.23-3.93,6.2-4.22,10.13-.99Z"/>
      <path class="cls-4" d="M1527.65,1225.91l-13.4,5.27c-3.59-9.39-7.87-18.34-12.95-27.01l12.5-7.16h0c5.42,9.29,10.01,18.86,13.85,28.9Z"/>
      <path class="cls-4" d="M1483.69,1454.21l38.47,42.87c-2.94,2.6-5.93,5.14-8.98,7.61l-17.98-22.5-8.99-11.25-102.05-127.66,89.91,100.21,9.62,10.72Z"/>
      <path class="cls-4" d="M1519.42,1516.6c3.06,4.07,2.65,7.02-1.42,10.08-4.06,3.07-7.02,2.65-10.08-1.41-3.07-4.07-2.65-7.02,1.41-10.09,4.07-3.06,7.02-2.65,10.09,1.42Z"/>
      <path class="cls-4" d="M1505.35,1342.27l13.8,4.11c-2.77,9.66-6.28,18.94-10.61,28.01l-13.06-6.07c4.03-8.44,7.3-17.06,9.87-26.05Z"/>
      <path class="cls-4" d="M1507.7,1058.14c4.19,2.89,4.74,5.82,1.85,10.01-2.88,4.2-5.81,4.75-10.01,1.86-4.19-2.88-4.74-5.81-1.86-10.01,2.89-4.2,5.82-4.74,10.02-1.86Z"/>
      <path class="cls-4" d="M1509.8,1190.48l-12.07,7.85c-5.4-8.48-11.4-16.37-18.12-23.85l10.81-9.52c7.18,8,13.6,16.45,19.38,25.52Z"/>
      <path class="cls-4" d="M1507.38,1429.62h-.01c-7.25,8.87-15.09,17.01-23.68,24.59l-9.62-10.72c8.07-7.11,15.43-14.75,22.23-23.07h.01s11.07,9.2,11.07,9.2Z"/>
      <path class="cls-4" d="M1504.43,1080.77l-34.68,45.98-8.67,11.5-81.08,107.49,82.83-123.9,8.01-11.97,1.04-1.56,22.97-34.36c3.24,2.21,6.44,4.48,9.58,6.82Z"/>
      <path class="cls-4" d="M1499.81,1530.85c2.71,4.31,2.04,7.22-2.27,9.92-4.32,2.71-7.22,2.04-9.93-2.27-2.7-4.32-2.04-7.23,2.28-9.93,4.31-2.7,7.22-2.04,9.92,2.28Z"/>
      <path class="cls-4" d="M1495.44,1149.24l-10.25,10.11c-7.49-7.71-15.47-14.7-24.11-21.1l8.67-11.5c9.2,6.82,17.71,14.27,25.69,22.49Z"/>
      <path class="cls-4" d="M1486.21,1470.94l8.99,11.25c-9.98,8.1-20.45,15.28-31.59,21.69l-7.27-12.43c10.54-6.05,20.43-12.85,29.87-20.51Z"/>
      <path class="cls-4" d="M1486.63,1044.97c4.43,2.51,5.22,5.38,2.71,9.81s-5.38,5.23-9.81,2.71c-4.43-2.51-5.23-5.38-2.71-9.81,2.51-4.43,5.38-5.22,9.81-2.71Z"/>
      <path class="cls-4" d="M1479.06,1543.36c2.32,4.53,1.41,7.37-3.12,9.69-4.54,2.32-7.37,1.41-9.7-3.12-2.32-4.53-1.41-7.37,3.13-9.7,4.53-2.32,7.36-1.4,9.69,3.13Z"/>
      <path class="cls-4" d="M1463.61,1503.88l14.53,24.86c-3.4,1.96-6.84,3.84-10.32,5.65l-6.55-12.83-6.54-12.82-80.86-158.39,82.47,141.1,7.27,12.43Z"/>
      <path class="cls-4" d="M1470.84,1109.87l-8.01,11.97c-9.46-6.44-19.29-12.03-29.68-16.86l6.19-13c11.01,5.13,21.45,11.06,31.5,17.89Z"/>
      <path class="cls-4" d="M1464.51,1033.65c4.63,2.12,5.67,4.92,3.55,9.55s-4.92,5.67-9.55,3.54c-4.63-2.12-5.67-4.91-3.54-9.54,2.12-4.63,4.91-5.67,9.54-3.55Z"/>
      <path class="cls-4" d="M1454.73,1508.74l6.54,12.82c-12.03,6.25-24.36,11.45-37.23,15.71l-4.62-13.64c12.21-4.03,23.9-8.96,35.31-14.89Z"/>
      <path class="cls-4" d="M1457.89,1052.96l-18.55,39.02-6.19,13-63.99,134.59,50.8-124.68,5.43-13.33,21.74-53.34c3.62,1.5,7.2,3.08,10.76,4.74Z"/>
      <path class="cls-4" d="M1457.3,1554.03c1.93,4.72.77,7.47-3.94,9.39-4.71,1.93-7.46.77-9.39-3.94-1.92-4.72-.77-7.47,3.94-9.39,4.72-1.92,7.47-.77,9.39,3.94Z"/>
      <path class="cls-4" d="M1441.5,1024.28c4.79,1.72,6.07,4.41,4.35,9.21-1.71,4.79-4.41,6.07-9.2,4.35-4.8-1.71-6.07-4.41-4.36-9.2,1.72-4.8,4.42-6.07,9.21-4.36Z"/>
      <path class="cls-4" d="M1434.71,1562.8c1.51,4.86.13,7.5-4.74,9.02-4.86,1.51-7.5.12-9.01-4.74s-.13-7.5,4.74-9.01c4.86-1.52,7.5-.13,9.01,4.73Z"/>
      <path class="cls-4" d="M1424.04,1537.27l4.62,13.64c-3.72,1.24-7.47,2.39-11.24,3.46l-3.84-13.88-51.22-185.28,57.06,168.42,4.62,13.64Z"/>
      <path class="cls-4" d="M1425.39,1101.56l-5.43,13.33c-9.92-4.14-20.02-7.42-30.48-9.9l3.45-13.98c11.14,2.64,21.89,6.14,32.46,10.55Z"/>
      <path class="cls-4" d="M1417.77,1016.92c4.92,1.3,6.42,3.88,5.13,8.8-1.3,4.93-3.88,6.43-8.8,5.13s-6.43-3.87-5.13-8.8c1.3-4.92,3.88-6.42,8.8-5.13Z"/>
      <path class="cls-4" d="M1411.45,1569.6c1.09,4.97-.52,7.48-5.5,8.57-4.97,1.09-7.48-.52-8.57-5.5-1.09-4.97.52-7.48,5.49-8.57,4.98-1.09,7.49.52,8.58,5.5Z"/>
      <path class="cls-4" d="M1406.7,1035.08l-13.77,55.93-3.45,13.98-32.2,130.72,22.07-118.18,2.64-14.16,13.22-70.78c3.85.75,7.68,1.57,11.49,2.49Z"/>
      <path class="cls-4" d="M1331.79,1235.57c4.01-.82,8.17-1.25,12.42-1.25,4.48,0,8.86.48,13.07,1.39,4.12.88,8.1,2.18,11.87,3.86h.01c3.83,1.69,7.47,3.76,10.84,6.17,3.41,2.42,6.55,5.17,9.4,8.22,2.83,3.04,5.37,6.37,7.55,9.95,2.17,3.53,3.99,7.3,5.41,11.25,1.4,3.87,2.42,7.92,3.02,12.11.42,2.89.63,5.84.63,8.85,0,1.22-.04,2.42-.11,3.62-.24,4.24-.91,8.36-1.98,12.33-1.07,4.07-2.56,7.98-4.42,11.67-1.87,3.75-4.12,7.28-6.68,10.55-2.59,3.28-5.49,6.29-8.67,8.98-3.17,2.69-6.61,5.07-10.28,7.08-3.63,1.99-7.48,3.63-11.51,4.86-3.93,1.21-8.02,2.03-12.24,2.43-1.95.19-3.92.28-5.91.28-2.22,0-4.41-.12-6.57-.35-4.22-.44-8.3-1.31-12.22-2.56-4.01-1.28-7.84-2.95-11.44-4.98-3.65-2.05-7.08-4.46-10.22-7.18-3.15-2.74-6.02-5.78-8.56-9.08-2.53-3.29-4.74-6.85-6.57-10.62-1.82-3.71-3.27-7.64-4.3-11.72-1.02-3.98-1.65-8.11-1.85-12.35-.05-.98-.07-1.97-.07-2.96,0-3.23.25-6.41.73-9.5.64-4.18,1.71-8.22,3.15-12.08,1.46-3.94,3.32-7.69,5.53-11.2,2.21-3.54,4.78-6.85,7.65-9.86h.01-.01c2.89-3.02,6.06-5.74,9.49-8.12,3.41-2.38,7.06-4.41,10.92-6.06,3.79-1.63,7.78-2.89,11.91-3.73Z"/>
      <path class="cls-4" d="M1393.49,1011.63c5.02.87,6.74,3.31,5.87,8.33s-3.31,6.73-8.33,5.86c-5.01-.86-6.73-3.3-5.86-8.32s3.31-6.73,8.32-5.87Z"/>
      <path class="cls-4" d="M1387.69,1574.36c.66,5.05-1.16,7.42-6.21,8.07-5.05.66-7.42-1.16-8.07-6.21-.66-5.05,1.16-7.41,6.21-8.07,5.05-.65,7.41,1.16,8.07,6.21Z"/>
      <path class="cls-4" d="M1381.99,1103.37l-2.64,14.16c-10.51-2.07-21.01-3.19-31.72-3.4l.41-14.39c11.47.22,22.7,1.42,33.95,3.63Z"/>
      <path class="cls-4" d="M1373.95,1548.4l1.78,14.29c-3.89.46-7.79.83-11.7,1.12l-8.72-129.31-.97-14.37-4.22-62.49,23.83,190.76Z"/>
      <path class="cls-4" d="M1368.85,1008.45c5.07.44,7,2.72,6.56,7.79-.43,5.07-2.71,6.99-7.79,6.56-5.07-.44-6.99-2.72-6.56-7.79.44-5.07,2.72-6.99,7.79-6.56Z"/>
      <path class="cls-4" d="M1363.61,1577.07c.22,5.09-1.8,7.29-6.89,7.51-5.08.22-7.28-1.8-7.5-6.88-.22-5.09,1.79-7.29,6.88-7.51s7.29,1.79,7.51,6.88Z"/>
      <path class="cls-4" d="M1354.34,1420.13l.97,14.37c-7.93.64-15.76.59-23.68-.13l1.12-14.35c7.22.66,14.36.7,21.59.11Z"/>
      <path class="cls-4" d="M1344.21,1007.4c5.09,0,7.2,2.11,7.2,7.2s-2.11,7.2-7.2,7.2-7.2-2.11-7.2-7.2,2.11-7.2,7.2-7.2Z"/>
      <path class="cls-4" d="M1350.09,1027.77l-2.05,71.97-.41,14.39-3.42,120.19-4.65-163.37-.41-14.39-.82-28.79c3.92-.09,7.84-.09,11.76,0Z"/>
      <path class="cls-4" d="M1339.15,1056.56l.41,14.39c-12.15.25-24.09,1.46-36.04,3.66l-2.5-14.18c12.65-2.32,25.28-3.6,38.13-3.87Z"/>
      <path class="cls-4" d="M1332.49,1570.2c5.09.21,7.11,2.41,6.89,7.5s-2.41,7.1-7.5,6.88c-5.09-.21-7.11-2.41-6.89-7.5.22-5.08,2.42-7.1,7.5-6.88Z"/>
      <path class="cls-4" d="M1337.64,1357.57l-4.89,62.45-1.12,14.35-4.58,58.59-5.53,70.62c-3.9-.33-7.8-.74-11.69-1.25l27.81-204.76Z"/>
      <path class="cls-4" d="M1303.52,1074.61l28.27,160.96-40.68-173.11-3.29-14.02h0l-3.29-14.02c3.83-.87,7.66-1.66,11.52-2.36l4.98,28.37,2.5,14.18Z"/>
      <path class="cls-4" d="M1327.18,1015.02c.44,5.07-1.48,7.36-6.55,7.79-5.08.44-7.36-1.48-7.8-6.55-.43-5.07,1.49-7.36,6.56-7.79,5.07-.44,7.35,1.48,7.79,6.55Z"/>
      <path class="cls-4" d="M1325.42,1355.01l-57.18,198.56c-3.76-1.11-7.5-2.3-11.21-3.58l23.45-66.85,44.94-128.13Z"/>
      <path class="cls-4" d="M1319.88,1239.3l-80.69-174.47-6.04-13.07c3.57-1.63,7.17-3.17,10.81-4.63l5.29,13.39,5.29,13.39,65.34,165.39Z"/>
      <path class="cls-4" d="M1308.97,1568.17c5.05.66,6.87,3.02,6.22,8.07s-3.02,6.87-8.07,6.22c-5.05-.66-6.87-3.02-6.21-8.07.65-5.05,3.01-6.87,8.06-6.22Z"/>
      <path class="cls-4" d="M1313.98,1350.03l-95.93,183.02c-3.46-1.85-6.88-3.76-10.26-5.76l106.19-177.26Z"/>
      <path class="cls-4" d="M1203.84,1084.41l105.12,160.95-105.56-143.12-8.55-11.59-8.54-11.59c3.17-2.31,6.39-4.54,9.66-6.71l7.87,12.06Z"/>
      <path class="cls-4" d="M1303.76,1342.85l-130.75,160.01c-3.02-2.5-5.98-5.06-8.89-7.7l139.64-152.31Z"/>
      <path class="cls-4" d="M1303.08,1017.53c.87,5.01-.85,7.45-5.86,8.32-5.02.88-7.46-.84-8.33-5.86-.87-5.01.84-7.45,5.86-8.32,5.02-.88,7.45.84,8.33,5.86Z"/>
      <polygon class="cls-4" points="1299.47 1253.47 1299.48 1253.48 1299.47 1253.48 1299.47 1253.47"/>
      <path class="cls-4" d="M1174.29,1127.17l125.18,126.3-121.45-109.35-10.71-9.63-21.4-19.27c2.64-2.9,5.34-5.73,8.11-8.51l10.14,10.23,10.13,10.23Z"/>
      <path class="cls-4" d="M1295.2,1333.77l-160.24,130.47c-2.46-3.06-4.84-6.16-7.16-9.33l167.4-121.14Z"/>
      <path class="cls-4" d="M1291.82,1263.34l-128.54-75.43-12.42-7.28-37.26-21.87c2.01-3.37,4.08-6.69,6.24-9.97l23.97,15.97,11.98,7.98,136.03,90.6Z"/>
      <path class="cls-4" d="M1285.71,1564.14c4.98,1.08,6.59,3.59,5.5,8.57-1.08,4.97-3.59,6.58-8.57,5.5-4.97-1.09-6.58-3.6-5.5-8.57,1.09-4.98,3.6-6.59,8.57-5.5Z"/>
      <path class="cls-4" d="M1287.82,1048.44l3.29,14.02c-12.54,2.85-24.65,6.64-36.57,11.45l-5.29-13.39c12.57-5.07,25.34-9.07,38.56-12.08h0Z"/>
      <path class="cls-4" d="M1288.63,1323.15l-183.19,95.61c-1.79-3.49-3.5-7.01-5.14-10.58l188.33-85.03Z"/>
      <path class="cls-4" d="M1148.19,1218.53l138.1,56.01-113.8-38.77-13.63-4.64-68.16-23.22c1.29-3.71,2.66-7.38,4.11-11.02l40.03,16.23,13.35,5.41Z"/>
      <path class="cls-4" d="M1284.33,1311.43l-198.66,56.85c-1.06-3.78-2.03-7.58-2.91-11.4l201.57-45.45Z"/>
      <path class="cls-4" d="M1283.14,1286.62l-76.42-9.68-14.29-1.81-114.29-14.48c.52-3.88,1.12-7.76,1.81-11.62l70.8,13.1,14.16,2.62,118.23,21.87Z"/>
      <path class="cls-4" d="M1282.48,1299.08l-206.04,15.77c-.27-3.92-.46-7.83-.56-11.75l115.18-2.24,14.4-.28,77.02-1.5Z"/>
      <path class="cls-4" d="M1279.28,1022.09c1.3,4.93-.2,7.5-5.13,8.8-4.92,1.3-7.5-.2-8.8-5.12s.2-7.5,5.13-8.8c4.92-1.3,7.5.2,8.8,5.12Z"/>
      <path class="cls-4" d="M1262.89,1558.12c4.86,1.51,6.25,4.15,4.74,9.01s-4.15,6.25-9.01,4.74c-4.86-1.51-6.25-4.15-4.74-9.01s4.15-6.25,9.01-4.74Z"/>
      <path class="cls-4" d="M1255.96,1028.69c1.72,4.79.44,7.49-4.35,9.21s-7.49.45-9.21-4.35c-1.72-4.79-.44-7.49,4.35-9.21,4.79-1.71,7.49-.44,9.21,4.35Z"/>
      <path class="cls-4" d="M1240.67,1550.16c4.71,1.92,5.87,4.67,3.95,9.38-1.93,4.72-4.67,5.87-9.39,3.95-4.71-1.92-5.87-4.67-3.95-9.38,1.92-4.72,4.67-5.88,9.39-3.95Z"/>
      <path class="cls-4" d="M1233.29,1037.27c2.13,4.63,1.09,7.42-3.54,9.55-4.62,2.12-7.42,1.08-9.54-3.54-2.13-4.63-1.09-7.43,3.53-9.55,4.63-2.13,7.43-1.09,9.55,3.54Z"/>
      <path class="cls-4" d="M1219.21,1540.31c4.53,2.32,5.45,5.16,3.13,9.69-2.32,4.54-5.16,5.45-9.69,3.13s-5.45-5.16-3.13-9.69,5.16-5.45,9.69-3.13Z"/>
      <path class="cls-4" d="M1211.45,1047.76c2.51,4.43,1.72,7.31-2.71,9.82-4.42,2.51-7.3,1.72-9.81-2.71-2.52-4.42-1.73-7.3,2.7-9.81,4.43-2.52,7.3-1.72,9.82,2.7Z"/>
      <path class="cls-4" d="M1192.43,1275.13l14.29,1.81c-1.1,7.87-1.51,15.69-1.26,23.64l-14.4.28c-.26-8.65.19-17.16,1.37-25.73Z"/>
      <path class="cls-4" d="M1194.85,1090.65l8.55,11.59c-10.4,7.55-20.04,15.81-29.11,24.93l-10.13-10.23c9.56-9.61,19.73-18.32,30.69-26.29Z"/>
      <path class="cls-4" d="M1198.68,1528.66c4.31,2.7,4.98,5.61,2.28,9.93-2.7,4.31-5.61,4.98-9.92,2.28-4.32-2.7-4.99-5.61-2.29-9.92,2.71-4.32,5.61-4.99,9.93-2.29Z"/>
      <path class="cls-4" d="M1190.59,1060.1c2.88,4.19,2.34,7.12-1.85,10.01-4.2,2.89-7.13,2.34-10.02-1.85-2.88-4.2-2.34-7.13,1.85-10.01,4.2-2.89,7.13-2.35,10.02,1.85Z"/>
      <path class="cls-4" d="M1179.23,1515.29c4.06,3.06,4.48,6.01,1.42,10.08-3.07,4.07-6.02,4.49-10.09,1.42-4.06-3.06-4.48-6.01-1.42-10.08,3.06-4.07,6.02-4.48,10.09-1.42Z"/>
      <path class="cls-4" d="M1178.02,1144.12h-.01c-8.2,8.98-15.56,18.45-22.22,28.62l-11.98-7.98c7.04-10.75,14.83-20.78,23.5-30.27l10.71,9.63Z"/>
      <path class="cls-4" d="M1158.86,1231.13l13.63,4.64c-3.34,9.48-5.84,19.08-7.58,28.98l-14.16-2.62c1.86-10.59,4.55-20.86,8.11-31Z"/>
      <path class="cls-4" d="M1170.86,1074.18c3.24,3.93,2.95,6.9-.98,10.13-3.93,3.24-6.9,2.95-10.13-.98-3.24-3.93-2.95-6.9.98-10.14,3.93-3.23,6.9-2.94,10.13.99Z"/>
      <path class="cls-4" d="M1150.86,1180.63l12.42,7.28c-5.88,9.83-10.88,19.97-15.09,30.62l-13.35-5.41c4.48-11.3,9.78-22.06,16.02-32.49Z"/>
      <path class="cls-4" d="M1160.99,1500.29c3.79,3.4,3.95,6.38.55,10.17s-6.38,3.95-10.16.55c-3.79-3.4-3.96-6.38-.55-10.17,3.4-3.79,6.37-3.95,10.16-.55Z"/>
      <path class="cls-4" d="M1152.43,1089.9c3.56,3.64,3.53,6.62-.11,10.19-3.64,3.56-6.62,3.53-10.19-.11-3.56-3.64-3.53-6.62.11-10.19,3.64-3.56,6.62-3.53,10.19.11Z"/>
      <path class="cls-4" d="M1144.12,1483.79c3.48,3.71,3.39,6.69-.33,10.17-3.71,3.49-6.69,3.39-10.18-.32-3.48-3.72-3.38-6.7.33-10.18s6.7-3.39,10.18.33Z"/>
      <path class="cls-4" d="M1135.41,1107.15c3.86,3.32,4.08,6.3.76,10.16s-6.29,4.08-10.15.77c-3.86-3.32-4.09-6.3-.77-10.16s6.29-4.08,10.16-.77Z"/>
      <path class="cls-4" d="M1128.73,1465.89c3.15,4,2.79,6.96-1.2,10.11-4,3.15-6.97,2.8-10.12-1.2s-2.8-6.96,1.2-10.11,6.96-2.8,10.12,1.2Z"/>
      <path class="cls-4" d="M1119.93,1125.81c4.14,2.97,4.61,5.91,1.64,10.05-2.97,4.13-5.92,4.61-10.05,1.63-4.13-2.97-4.61-5.91-1.64-10.05,2.98-4.13,5.92-4.61,10.05-1.63Z"/>
      <path class="cls-4" d="M1114.93,1446.73c2.79,4.26,2.19,7.18-2.07,9.97-4.25,2.8-7.17,2.2-9.97-2.06-2.79-4.26-2.19-7.18,2.07-9.97,4.25-2.8,7.17-2.19,9.97,2.06Z"/>
      <path class="cls-4" d="M1106.12,1145.72c4.37,2.61,5.1,5.5,2.5,9.87-2.61,4.37-5.5,5.1-9.88,2.5-4.37-2.61-5.1-5.5-2.49-9.88,2.61-4.37,5.5-5.1,9.87-2.49Z"/>
      <path class="cls-4" d="M1102.83,1426.46c2.42,4.48,1.56,7.34-2.92,9.76-4.48,2.42-7.33,1.57-9.75-2.91s-1.57-7.34,2.91-9.76c4.48-2.42,7.34-1.57,9.76,2.91Z"/>
      <path class="cls-4" d="M1094.07,1166.74c4.58,2.23,5.56,5.05,3.34,9.63-2.23,4.58-5.04,5.55-9.63,3.33-4.58-2.22-5.55-5.04-3.33-9.62s5.04-5.56,9.62-3.34Z"/>
      <path class="cls-4" d="M1092.52,1405.23c2.02,4.67.93,7.44-3.75,9.47-4.67,2.02-7.44.93-9.47-3.74-2.02-4.68-.93-7.45,3.75-9.47,4.67-2.03,7.44-.93,9.47,3.74Z"/>
      <path class="cls-4" d="M1083.87,1188.73c4.76,1.82,5.97,4.54,4.15,9.3-1.82,4.75-4.54,5.97-9.29,4.15-4.76-1.82-5.98-4.55-4.15-9.3,1.82-4.76,4.54-5.97,9.29-4.15Z"/>
      <path class="cls-4" d="M1084.07,1383.19c1.61,4.82.28,7.49-4.54,9.11-4.83,1.61-7.5.28-9.12-4.54-1.61-4.83-.28-7.5,4.54-9.12,4.83-1.61,7.5-.28,9.12,4.55Z"/>
      <path class="cls-4" d="M1075.61,1211.51c4.89,1.4,6.33,4.01,4.93,8.91-1.41,4.89-4.01,6.34-8.91,4.93-4.89-1.4-6.34-4.01-4.93-8.91,1.4-4.89,4.01-6.34,8.91-4.93Z"/>
      <path class="cls-4" d="M1077.55,1360.5c1.19,4.95-.36,7.49-5.31,8.69-4.95,1.19-7.5-.36-8.69-5.31-1.2-4.95.36-7.5,5.31-8.69,4.95-1.2,7.49.36,8.69,5.31Z"/>
      <path class="cls-4" d="M1069.33,1234.92c4.99.97,6.66,3.45,5.68,8.45-.98,4.99-3.46,6.66-8.45,5.68-5-.98-6.66-3.46-5.69-8.45.98-5,3.46-6.66,8.46-5.68Z"/>
      <path class="cls-4" d="M1073,1337.33c.76,5.04-1,7.44-6.04,8.2-5.03.77-7.43-1-8.2-6.03-.76-5.04,1.01-7.44,6.04-8.2,5.03-.77,7.43,1,8.2,6.03Z"/>
      <path class="cls-4" d="M1065.08,1258.77c5.06.55,6.93,2.87,6.39,7.94-.55,5.06-2.87,6.93-7.93,6.38-5.07-.54-6.94-2.87-6.39-7.93s2.87-6.93,7.93-6.39Z"/>
      <path class="cls-4" d="M1070.46,1313.86c.33,5.08-1.64,7.33-6.72,7.66-5.08.32-7.32-1.64-7.65-6.72-.33-5.09,1.64-7.33,6.72-7.66s7.32,1.64,7.65,6.72Z"/>
      <path class="cls-4" d="M1062.9,1282.91c5.09.11,7.16,2.26,7.05,7.35s-2.26,7.16-7.35,7.05-7.16-2.26-7.05-7.35,2.26-7.16,7.35-7.05Z"/>
    </g>
  </g>
</svg>