<?xml version="1.0" encoding="UTF-8"?>
<svg id="Layer_1" data-name="Layer 1" xmlns="http://www.w3.org/2000/svg" viewBox="0 0 1920 1080">
  <path d="M215,681.34h3.9l.13-26.52h1.49c15.86,0,21.58-4.09,21.52-12.48-.07-7.47-6.3-10.66-14.17-10.66h-12.87v49.66h0ZM246.13,681.34h4.23l-9.36-18.14c-2.79-5.4-3.77-9.16-15.01-9.16h-5.53v.78h5.65c7.34,0,8.06,3.06,11.05,8.97l8.97,17.55h0ZM219.03,654.04l-.13-21.58h8.19c7.86,0,11.31,3.44,11.37,9.88.07,7.28-4.16,11.7-17.55,11.7h-1.89ZM256.21,681.34h3.9v-49.66h-3.9v49.66h0ZM293.26,681.73c9.3,0,17.94-4.94,21.06-13.33l-.72-.26c-2.66,7.28-10.59,12.74-20.09,12.74-14.04,0-21.51-11.18-21.51-24.51s7.28-24.38,21.45-24.38c11.11,0,17.94,7.02,17.94,16.25h.78c0-10.08-7.67-17.03-18.91-17.03-15.02,0-25.48,10.85-25.48,25.28s11.18,25.22,25.48,25.22h0ZM312.17,648.26h-.78c0,2.73-.65,5.65-1.82,7.6l.65.46c1.3-2.15,1.95-5.14,1.95-8.06h0ZM321.01,681.34h3.9v-49.66h-3.9v49.66h0ZM321.66,681.34h27.17v-.78h-27.17v.78h0ZM321.66,651.44h23.27v-.78h-23.27v.78h0ZM321.66,632.46h26.52v-.78h-26.52v.78h0ZM409.22,681.34h4.29l-22.17-49.66h-4.29l22.16,49.66h0ZM367.29,681.34h.91l20.8-47.51-.59-.46-21.12,47.97h0ZM379.45,655.28h20.08v-.78h-20.08v.78h0ZM430.41,681.8c8.32,0,16.51-5.33,16.51-16.83,0-17.88-27.43-9.49-27.43-24.18,0-5.33,5.53-8.91,12.8-8.78,8.26.2,12.35,4.94,12.35,9.17h.78c0-4.81-4.74-9.95-13.2-9.95s-14.69,4.55-14.69,11.76c0,16.97,27.43,8.39,27.43,24.38,0,9.69-7.67,13.65-14.69,13.65-9.3-.13-15.28-5.98-15.28-14.24h-.78c0,8.9,6.37,15.01,16.18,15.01h0ZM444.64,641.17c0,1.76-.39,2.99-.98,3.9l.65.39c.59-.91,1.1-2.41,1.1-4.29h-.78ZM469.15,681.8c8.32,0,16.51-5.33,16.51-16.83,0-17.88-27.43-9.49-27.43-24.18,0-5.33,5.53-8.91,12.8-8.78,8.26.2,12.35,4.94,12.35,9.17h.78c0-4.81-4.74-9.95-13.19-9.95s-14.69,4.55-14.69,11.76c0,16.97,27.43,8.39,27.43,24.38,0,9.69-7.67,13.65-14.69,13.65-9.29-.13-15.27-5.98-15.27-14.24h-.78c0,8.9,6.37,15.01,16.18,15.01h0ZM483.38,641.17c0,1.76-.39,2.99-.98,3.9l.65.39c.59-.91,1.1-2.41,1.1-4.29h-.78ZM516.21,681.8c14.49,0,25.22-10.79,25.22-25.28s-10.72-25.28-25.22-25.28-25.22,10.79-25.22,25.28,10.59,25.28,25.22,25.28h0ZM516.21,681.02c-13.2,0-21.19-10.14-21.19-24.51s8.12-24.51,21.19-24.51,21.19,10.14,21.19,24.51-8.12,24.51-21.19,24.51h0ZM571.84,681.73c9.29,0,17.94-4.94,21.06-13.33l-.71-.26c-2.67,7.28-10.6,12.74-20.08,12.74-14.04,0-21.52-11.18-21.52-24.51s7.28-24.38,21.45-24.38c11.11,0,17.94,7.02,17.94,16.25h.78c0-10.08-7.67-17.03-18.91-17.03-15.01,0-25.48,10.85-25.48,25.28s11.18,25.22,25.48,25.22h0ZM590.76,648.26h-.78c0,2.73-.65,5.65-1.82,7.6l.65.46c1.3-2.15,1.95-5.14,1.95-8.06h0ZM599.6,681.34h3.9v-49.66h-3.9v49.66h0ZM651.27,681.34h4.29l-22.17-49.66h-4.29l22.17,49.66h0ZM609.35,681.34h.91l20.8-47.51-.59-.46-21.12,47.97h0ZM621.5,655.28h20.08v-.78h-20.08v.78h0ZM651.01,632.46h34.97v-.78h-34.97v.78h0ZM666.55,681.34h3.9v-49.66h-3.9v49.66h0ZM692.42,681.34h3.9v-49.66h-3.9v49.66h0ZM729.21,681.8c14.49,0,25.22-10.79,25.22-25.28s-10.73-25.28-25.22-25.28-25.22,10.79-25.22,25.28,10.59,25.28,25.22,25.28h0ZM729.21,681.02c-13.2,0-21.19-10.14-21.19-24.51s8.13-24.51,21.19-24.51,21.19,10.14,21.19,24.51-8.13,24.51-21.19,24.51h0ZM795.24,681.34h1.24l-.59-5.2-31.78-44.46h-4.61l35.75,49.66h0ZM761.45,681.34h.78v-49.66h-.78v49.66h0ZM795.7,681.34h.78v-49.66h-.78v49.66h0ZM820.53,681.34h3.9v-49.66h-3.9v49.66h0ZM820.53,651.96h23.92v-.78h-23.92v.78h0ZM820.53,632.46h27.17v-.78h-27.17v.78h0ZM873.89,681.8c14.5,0,25.22-10.79,25.22-25.28s-10.72-25.28-25.22-25.28-25.22,10.79-25.22,25.28,10.6,25.28,25.22,25.28h0ZM873.89,681.02c-13.19,0-21.19-10.14-21.19-24.51s8.13-24.51,21.19-24.51,21.19,10.14,21.19,24.51-8.12,24.51-21.19,24.51h0ZM906.78,681.34h3.9l.13-26.52h1.5c15.86,0,21.58-4.09,21.51-12.48-.06-7.47-6.3-10.66-14.17-10.66h-12.87v49.66h0ZM937.92,681.34h4.22l-9.36-18.14c-2.79-5.4-3.77-9.16-15.01-9.16h-5.53v.78h5.66c7.34,0,8.06,3.06,11.05,8.97l8.97,17.55h0ZM910.81,654.04l-.13-21.58h8.19c7.87,0,11.31,3.44,11.38,9.88.06,7.28-4.16,11.7-17.55,11.7h-1.89ZM999.66,681.34h4.29l-22.16-49.66h-4.29l22.16,49.66h0ZM957.74,681.34h.91l20.8-47.51-.59-.46-21.12,47.97h0ZM969.89,655.28h20.09v-.78h-20.09v.78h0ZM1009.8,681.34h3.9v-49.66h-3.9v49.66h0ZM1009.8,651.96h23.92v-.78h-23.92v.78h0ZM1009.8,632.46h27.17v-.78h-27.17v.78h0ZM1044.58,681.34h3.9l.13-26.52h1.49c15.86,0,21.58-4.09,21.52-12.48-.07-7.47-6.31-10.66-14.17-10.66h-12.87v49.66h0ZM1075.71,681.34h4.23l-9.36-18.14c-2.8-5.4-3.77-9.16-15.02-9.16h-5.52v.78h5.65c7.35,0,8.06,3.06,11.05,8.97l8.97,17.55h0ZM1048.61,654.04l-.13-21.58h8.19c7.86,0,11.31,3.44,11.37,9.88.07,7.28-4.16,11.7-17.55,11.7h-1.88ZM1085.79,681.34h3.9v-49.66h-3.9v49.66h0ZM1122.84,681.73c9.29,0,17.94-4.94,21.06-13.33l-.72-.26c-2.66,7.28-10.59,12.74-20.08,12.74-14.04,0-21.52-11.18-21.52-24.51s7.28-24.38,21.45-24.38c11.12,0,17.94,7.02,17.94,16.25h.78c0-10.08-7.67-17.03-18.91-17.03-15.02,0-25.48,10.85-25.48,25.28s11.18,25.22,25.48,25.22h0ZM1141.75,648.26h-.78c0,2.73-.65,5.65-1.82,7.6l.65.46c1.3-2.15,1.95-5.14,1.95-8.06h0ZM1187.96,681.34h4.29l-22.16-49.66h-4.29l22.16,49.66h0ZM1146.04,681.34h.91l20.8-47.51-.59-.46-21.12,47.97h0ZM1158.19,655.28h20.09v-.78h-20.09v.78h0ZM1230.6,681.34h1.24l-.59-5.2-31.78-44.46h-4.62l35.75,49.66h0ZM1196.8,681.34h.78v-49.66h-.78v49.66h0ZM1231.06,681.34h.78v-49.66h-.78v49.66h0ZM1255.89,681.34h15.27c15.34,0,26.78-10.66,26.78-24.96s-10.4-24.7-26.52-24.7h-15.53v49.66h0ZM1259.79,680.56v-48.1h11.83c15.21,0,22.16,10.2,22.16,23.92s-7.73,24.18-22.81,24.18h-11.18ZM1305.61,681.34h3.9v-49.66h-3.9v49.66h0ZM1306.26,681.34h27.17v-.78h-27.17v.78h0ZM1306.26,651.44h23.27v-.78h-23.27v.78h0ZM1306.26,632.46h26.52v-.78h-26.52v.78h0ZM1359.04,681.34h1.17l20.8-49.66h-.84l-19.31,46.02h.85l-19.89-46.02h-4.23l21.45,49.66h0ZM1386.86,681.34h3.9v-49.66h-3.9v49.66h0ZM1387.51,681.34h27.17v-.78h-27.17v.78h0ZM1387.51,651.44h23.27v-.78h-23.27v.78h0ZM1387.51,632.46h26.52v-.78h-26.52v.78h0ZM1423.39,681.34h27.82v-.78h-27.82v.78h0ZM1423.39,681.34h3.9v-49.66h-3.9v49.66h0ZM1471.49,681.8c14.5,0,25.22-10.79,25.22-25.28s-10.72-25.28-25.22-25.28-25.22,10.79-25.22,25.28,10.6,25.28,25.22,25.28h0ZM1471.49,681.02c-13.19,0-21.19-10.14-21.19-24.51s8.13-24.51,21.19-24.51,21.19,10.14,21.19,24.51-8.12,24.51-21.19,24.51h0ZM1504.38,681.34h3.9l.13-23.73h4.23c10.85,0,17.87-4.29,17.81-13.97-.07-8.77-7.61-11.96-15.47-11.96h-10.6v49.66h0ZM1508.41,656.84l-.13-24.38h7.22c6.63,0,11.31,3.44,11.37,11.18.07,8.58-5.46,13.2-13.84,13.2h-4.62ZM1538.51,681.34h.78v-47.39l-.78.26,20.21,34.97h1.17l22.36-36.21-1.62,1.23v47.13h3.9v-49.66h-2.34l-21.19,34.26h.32l-19.82-34.26h-2.99v49.66h0ZM1538.57,634.22l.07-2.53h-1.69l1.62,2.53h0ZM1594.92,681.34h3.9v-49.66h-3.9v49.66h0ZM1595.57,681.34h27.17v-.78h-27.17v.78h0ZM1595.57,651.44h23.27v-.78h-23.27v.78h0ZM1595.57,632.46h26.52v-.78h-26.52v.78h0ZM1662.65,681.34h1.24l-.59-5.2-31.78-44.46h-4.62l35.75,49.66h0ZM1628.85,681.34h.78v-49.66h-.78v49.66h0ZM1663.11,681.34h.78v-49.66h-.78v49.66h0ZM1669.74,632.46h34.97v-.78h-34.97v.78h0ZM1685.27,681.34h3.9v-49.66h-3.9v49.66h0Z"/>
  <path d="M217.76,573.2h34.56l.43-88.13h4.97c40.39,0,62.64-13.61,62.42-41.47-.22-24.84-24.19-35.42-50.33-35.42h-52.06v165.02h0ZM317.12,573.2h36.29l-30.24-60.26c-8.86-17.93-15.98-30.46-53.35-30.46h-12.53v2.59h5.4c13.18,0,16.2,9.94,25.92,29.81l28.51,58.32h0ZM252.76,482.48l-.43-71.71h8.86c17.06,0,25.92,11.45,26.14,33.26.22,23.76-9.07,38.45-31.75,38.45h-2.81ZM574.16,573.2h38.66l-69.34-165.02h-38.45l69.12,165.02h0ZM451.26,573.2h2.81l61.99-146.02-1.73-2.38-63.07,148.39h0ZM488.19,490.9h66.53v-2.59h-66.53v2.59h0ZM852.36,573.2h38.67l-69.34-165.02h-38.45l69.12,165.02h0ZM729.46,573.2h2.81l61.99-146.02-1.73-2.38-63.07,148.39h0ZM766.4,490.9h66.52v-2.59h-66.52v2.59h0ZM1021.27,573.2h61.56c49.9,0,89-34.99,89-83.59s-37.8-81.43-88.56-81.43h-62v165.02h0ZM1055.83,570.61v-159.84h27.44c33.91,0,53.13,32.62,53.13,78.84s-20.09,81-53.35,81h-27.22ZM1312.44,573.2h34.56v-165.02h-34.56v165.02h0ZM1334.04,573.2h80.14v-2.59h-80.14v2.59h0ZM1334.04,473.84h67.18v-2.59h-67.18v2.59h0ZM1334.04,410.77h77.98v-2.59h-77.98v2.59h0Z"/>
</svg>