<?xml version="1.0" standalone="no"?>
<!DOCTYPE svg PUBLIC "-//W3C//DTD SVG 20010904//EN" "http://www.w3.org/TR/2001/REC-SVG-20010904/DTD/svg10.dtd">
<svg version="1.0" xmlns="http://www.w3.org/2000/svg" width="1000.000000pt" height="1000.000000pt" viewBox="0 0 1000.000000 1000.000000" preserveAspectRatio="xMidYMid meet">
  <metadata>
    Created for RAADE - Safari Pinned Tab Icon
  </metadata>
  <g transform="translate(0.000000,1000.000000) scale(0.100000,-0.100000)" fill="#000000" stroke="none">
    <!-- Simplified RAADE logo shape -->
    <path d="M4700 7500 c-1400 -150 -2500 -1200 -2700 -2600 -25 -175 -25 -625 0
    -800 100 -700 450 -1350 975 -1825 525 -475 1175 -725 1925 -725 750 0 1400
    250 1925 725 525 475 875 1125 975 1825 25 175 25 625 0 800 -200 1400 -1300
    2450 -2700 2600 -175 20 -225 20 -400 0z m550 -500 c1100 -150 1950 -1000
    2100 -2100 25 -175 25 -625 0 -800 -150 -1100 -1000 -1950 -2100 -2100 -175
    -25 -625 -25 -800 0 -1100 150 -1950 1000 -2100 2100 -25 175 -25 625 0 800
    150 1100 1000 1950 2100 2100 175 25 625 25 800 0z"/>
    <path d="M4800 5500 c-300 -50 -550 -200 -700 -425 -100 -150 -150 -325 -150
    -525 0 -200 50 -375 150 -525 150 -225 400 -375 700 -425 75 -12 225 -12 300
    0 300 50 550 200 700 425 100 150 150 325 150 525 0 200 -50 375 -150 525
    -150 225 -400 375 -700 425 -75 12 -225 12 -300 0z m300 -500 c125 -50 225
    -150 275 -275 25 -60 30 -85 30 -175 0 -90 -5 -115 -30 -175 -50 -125 -150
    -225 -275 -275 -60 -25 -85 -30 -175 -30 -90 0 -115 5 -175 30 -125 50 -225
    150 -275 275 -25 60 -30 85 -30 175 0 90 5 115 30 175 50 125 150 225 275 275
    60 25 85 30 175 30 90 0 115 -5 175 -30z"/>
  </g>
</svg>
